<svg width="101" height="103" viewBox="0 0 101 103" fill="none" xmlns="http://www.w3.org/2000/svg">
<path d="M33.704 34.92H48.208L48.6 35.928H33.2L33.704 34.92ZM60.864 51.328C61.0133 51.328 61.088 51.44 61.088 51.664C61.088 51.888 61.0133 52 60.864 52C60.192 52 59.1093 51.9627 57.616 51.888C56.1973 51.8133 55.152 51.776 54.48 51.776C53.696 51.776 52.6693 51.8133 51.4 51.888C50.2053 51.9627 49.3093 52 48.712 52C48.5627 52 48.488 51.888 48.488 51.664C48.488 51.44 48.5627 51.328 48.712 51.328C50.2427 51.328 51.344 51.1973 52.016 50.936C52.688 50.6373 53.024 50.152 53.024 49.48C53.024 48.9573 52.8187 48.2293 52.408 47.296L39.752 20.08L40.816 19.128L30.008 45.112C29.4853 46.3813 29.224 47.4267 29.224 48.248C29.224 49.3307 29.672 50.1147 30.568 50.6C31.464 51.0853 32.864 51.328 34.768 51.328C34.9547 51.328 35.048 51.44 35.048 51.664C35.048 51.888 34.9547 52 34.768 52C34.096 52 33.1253 51.9627 31.856 51.888C30.4373 51.8133 29.2053 51.776 28.16 51.776C27.2267 51.776 26.1253 51.8133 24.856 51.888C23.736 51.9627 22.8213 52 22.112 52C21.9253 52 21.832 51.888 21.832 51.664C21.832 51.44 21.9253 51.328 22.112 51.328C23.1573 51.328 24.0347 51.1413 24.744 50.768C25.4907 50.3947 26.1813 49.7227 26.816 48.752C27.488 47.7813 28.1973 46.4 28.944 44.608L40.648 16.44C40.7227 16.328 40.8347 16.272 40.984 16.272C41.1707 16.272 41.2827 16.328 41.32 16.44L54.312 44.328C55.1707 46.232 55.936 47.688 56.608 48.696C57.28 49.6667 57.9333 50.3573 58.568 50.768C59.24 51.1413 60.0053 51.328 60.864 51.328Z" fill="white"/>
<path d="M63.632 72.224C62.5493 72.224 61.336 72.168 59.992 72.056C59.4693 72.0187 58.816 71.9813 58.032 71.944C57.2853 71.9067 56.4453 71.888 55.512 71.888L51.816 71.944C51.144 71.9813 50.2107 72 49.016 72C48.9413 72 48.904 71.888 48.904 71.664C48.904 71.44 48.9413 71.328 49.016 71.328C50.472 71.328 51.536 71.2347 52.208 71.048C52.9173 70.8613 53.4027 70.5067 53.664 69.984C53.9253 69.424 54.056 68.584 54.056 67.464V41.536C54.056 40.416 53.9253 39.5947 53.664 39.072C53.44 38.5493 52.9733 38.1947 52.264 38.008C51.592 37.784 50.528 37.672 49.072 37.672C48.9973 37.672 48.96 37.56 48.96 37.336C48.96 37.112 48.9973 37 49.072 37L51.816 37.056C53.384 37.1307 54.616 37.168 55.512 37.168C56.8187 37.168 58.144 37.112 59.488 37C61.1307 36.9253 62.2507 36.888 62.848 36.888C66.768 36.888 70.24 37.6347 73.264 39.128C76.288 40.6213 78.6213 42.656 80.264 45.232C81.944 47.808 82.784 50.7013 82.784 53.912C82.784 57.5333 81.9067 60.744 80.152 63.544C78.4347 66.3067 76.12 68.4533 73.208 69.984C70.296 71.4773 67.104 72.224 63.632 72.224ZM63.072 71.496C66.208 71.496 68.9893 70.8613 71.416 69.592C73.8427 68.3227 75.728 66.456 77.072 63.992C78.4533 61.528 79.144 58.5787 79.144 55.144C79.144 51.8587 78.4907 48.8907 77.184 46.24C75.9147 43.5893 74.0667 41.4987 71.64 39.968C69.2507 38.4 66.488 37.616 63.352 37.616C61.7093 37.616 60.44 37.7093 59.544 37.896C58.6853 38.0827 58.0507 38.4747 57.64 39.072C57.2293 39.632 57.024 40.4907 57.024 41.648V66.848C57.024 67.968 57.192 68.864 57.528 69.536C57.864 70.208 58.4613 70.712 59.32 71.048C60.1787 71.3467 61.4293 71.496 63.072 71.496Z" fill="white"/>
<path d="M68.5 47.5L67 36L53 34L45.5 43L47.5 60L68.5 47.5Z" fill="#1A1A1A"/>
<path d="M36 69.0844L66.538 24.1111" stroke="white"/>
<path d="M16.448 88.46H19.628L19.712 88.7H16.328L16.448 88.46ZM22.388 91.856C22.42 91.856 22.436 91.88 22.436 91.928C22.436 91.976 22.42 92 22.388 92C22.236 92 22 91.992 21.68 91.976C21.36 91.96 21.128 91.952 20.984 91.952C20.808 91.952 20.584 91.96 20.312 91.976C20.056 91.992 19.86 92 19.724 92C19.692 92 19.676 91.976 19.676 91.928C19.676 91.88 19.692 91.856 19.724 91.856C20.028 91.856 20.244 91.828 20.372 91.772C20.508 91.716 20.576 91.616 20.576 91.472C20.576 91.352 20.528 91.184 20.432 90.968L17.768 85.34L18.068 84.968L15.74 90.476C15.628 90.748 15.572 90.972 15.572 91.148C15.572 91.62 15.964 91.856 16.748 91.856C16.788 91.856 16.808 91.88 16.808 91.928C16.808 91.976 16.788 92 16.748 92C16.604 92 16.396 91.992 16.124 91.976C15.82 91.96 15.556 91.952 15.332 91.952C15.124 91.952 14.884 91.96 14.612 91.976C14.372 91.992 14.172 92 14.012 92C13.972 92 13.952 91.976 13.952 91.928C13.952 91.88 13.972 91.856 14.012 91.856C14.236 91.856 14.424 91.816 14.576 91.736C14.736 91.648 14.884 91.5 15.02 91.292C15.164 91.076 15.32 90.768 15.488 90.368L18.02 84.392C18.036 84.368 18.064 84.356 18.104 84.356C18.144 84.356 18.168 84.368 18.176 84.392L21.008 90.356C21.28 90.948 21.512 91.348 21.704 91.556C21.896 91.756 22.124 91.856 22.388 91.856ZM31.3538 92C31.1538 92 30.7698 91.66 30.2018 90.98C29.6418 90.292 28.9658 89.348 28.1738 88.148L28.8458 87.944C29.5418 88.944 30.1218 89.724 30.5858 90.284C31.0578 90.836 31.4738 91.236 31.8338 91.484C32.1938 91.732 32.5458 91.856 32.8898 91.856C32.9138 91.856 32.9258 91.88 32.9258 91.928C32.9258 91.976 32.9138 92 32.8898 92H31.3538ZM28.3298 84.464C28.9618 84.464 29.4498 84.608 29.7938 84.896C30.1378 85.184 30.3098 85.568 30.3098 86.048C30.3098 86.472 30.1858 86.86 29.9378 87.212C29.6898 87.556 29.3538 87.832 28.9298 88.04C28.5138 88.24 28.0658 88.34 27.5858 88.34C27.5378 88.34 27.3578 88.328 27.0458 88.304V91.028C27.0458 91.276 27.0698 91.456 27.1178 91.568C27.1658 91.68 27.2578 91.756 27.3938 91.796C27.5378 91.836 27.7618 91.856 28.0658 91.856C28.0898 91.856 28.1018 91.88 28.1018 91.928C28.1018 91.976 28.0898 92 28.0658 92C27.8178 92 27.6218 91.996 27.4778 91.988L26.6498 91.976L25.8338 91.988C25.6898 91.996 25.4858 92 25.2218 92C25.2058 92 25.1978 91.976 25.1978 91.928C25.1978 91.88 25.2058 91.856 25.2218 91.856C25.5258 91.856 25.7498 91.836 25.8938 91.796C26.0378 91.748 26.1378 91.668 26.1938 91.556C26.2498 91.444 26.2778 91.268 26.2778 91.028V85.472C26.2778 85.232 26.2498 85.056 26.1938 84.944C26.1458 84.832 26.0498 84.756 25.9058 84.716C25.7698 84.668 25.5498 84.644 25.2458 84.644C25.2218 84.644 25.2098 84.62 25.2098 84.572C25.2098 84.524 25.2218 84.5 25.2458 84.5L25.8338 84.512C26.1698 84.528 26.4418 84.536 26.6498 84.536C26.8258 84.536 26.9898 84.532 27.1418 84.524C27.2938 84.516 27.4218 84.508 27.5258 84.5C27.8298 84.476 28.0978 84.464 28.3298 84.464ZM29.4938 86.396C29.4938 85.772 29.3538 85.324 29.0738 85.052C28.8018 84.78 28.4018 84.644 27.8738 84.644C27.5618 84.644 27.3458 84.7 27.2258 84.812C27.1058 84.924 27.0458 85.152 27.0458 85.496V88.016C27.2378 88.048 27.4738 88.064 27.7538 88.064C28.3778 88.064 28.8218 87.928 29.0858 87.656C29.3578 87.384 29.4938 86.964 29.4938 86.396ZM36.3316 84.716C35.8356 84.716 35.4596 84.844 35.2036 85.1C34.9556 85.356 34.7756 85.792 34.6636 86.408C34.6636 86.424 34.6396 86.432 34.5916 86.432C34.5516 86.432 34.5316 86.424 34.5316 86.408C34.5636 86.12 34.5996 85.744 34.6396 85.28C34.6796 84.816 34.6996 84.468 34.6996 84.236C34.6996 84.196 34.7196 84.176 34.7596 84.176C34.8076 84.176 34.8316 84.196 34.8316 84.236C34.8316 84.412 35.0476 84.5 35.4796 84.5C36.1676 84.524 36.9716 84.536 37.8916 84.536C38.3636 84.536 38.8636 84.528 39.3916 84.512L40.2076 84.5C40.4956 84.5 40.7076 84.48 40.8436 84.44C40.9876 84.4 41.0796 84.32 41.1196 84.2C41.1276 84.168 41.1516 84.152 41.1916 84.152C41.2316 84.152 41.2516 84.168 41.2516 84.2C41.2276 84.432 41.2036 84.784 41.1796 85.256C41.1556 85.728 41.1436 86.112 41.1436 86.408C41.1436 86.424 41.1196 86.432 41.0716 86.432C41.0236 86.432 40.9996 86.424 40.9996 86.408C40.9756 85.784 40.8476 85.348 40.6156 85.1C40.3836 84.844 39.9996 84.716 39.4636 84.716C39.1036 84.716 38.8476 84.732 38.6956 84.764C38.5436 84.796 38.4396 84.864 38.3836 84.968C38.3276 85.072 38.2996 85.248 38.2996 85.496V91.028C38.2996 91.276 38.3276 91.456 38.3836 91.568C38.4396 91.68 38.5476 91.756 38.7076 91.796C38.8676 91.836 39.1196 91.856 39.4636 91.856C39.4876 91.856 39.4996 91.88 39.4996 91.928C39.4996 91.976 39.4876 92 39.4636 92C39.1996 92 38.9876 91.996 38.8276 91.988L37.8916 91.976L36.9916 91.988C36.8316 91.996 36.6116 92 36.3316 92C36.3156 92 36.3076 91.976 36.3076 91.928C36.3076 91.88 36.3156 91.856 36.3316 91.856C36.6756 91.856 36.9276 91.836 37.0876 91.796C37.2476 91.756 37.3556 91.68 37.4116 91.568C37.4756 91.448 37.5076 91.268 37.5076 91.028V85.472C37.5076 85.224 37.4796 85.052 37.4236 84.956C37.3676 84.852 37.2636 84.788 37.1116 84.764C36.9596 84.732 36.6996 84.716 36.3316 84.716ZM52.6896 92.048C52.4576 92.048 52.1896 92.036 51.8856 92.012C51.7736 92.004 51.6296 91.996 51.4536 91.988C51.2856 91.98 51.0976 91.976 50.8896 91.976L50.0736 91.988C49.9296 91.996 49.7296 92 49.4736 92C49.4576 92 49.4496 91.976 49.4496 91.928C49.4496 91.88 49.4576 91.856 49.4736 91.856C49.7776 91.856 49.9976 91.836 50.1336 91.796C50.2776 91.756 50.3736 91.68 50.4216 91.568C50.4776 91.448 50.5056 91.268 50.5056 91.028V85.472C50.5056 85.232 50.4816 85.056 50.4336 84.944C50.3856 84.832 50.2896 84.756 50.1456 84.716C50.0096 84.668 49.7896 84.644 49.4856 84.644C49.4696 84.644 49.4616 84.62 49.4616 84.572C49.4616 84.524 49.4696 84.5 49.4856 84.5L50.0856 84.512C50.4216 84.528 50.6896 84.536 50.8896 84.536C51.1936 84.536 51.4936 84.524 51.7896 84.5C52.1416 84.484 52.3856 84.476 52.5216 84.476C53.3536 84.476 54.0896 84.636 54.7296 84.956C55.3696 85.276 55.8656 85.712 56.2176 86.264C56.5776 86.816 56.7576 87.436 56.7576 88.124C56.7576 88.9 56.5736 89.588 56.2056 90.188C55.8456 90.78 55.3536 91.24 54.7296 91.568C54.1056 91.888 53.4256 92.048 52.6896 92.048ZM52.5696 91.868C53.2096 91.868 53.7776 91.736 54.2736 91.472C54.7696 91.2 55.1536 90.804 55.4256 90.284C55.7056 89.756 55.8456 89.124 55.8456 88.388C55.8456 87.692 55.7136 87.06 55.4496 86.492C55.1856 85.924 54.8096 85.476 54.3216 85.148C53.8336 84.82 53.2696 84.656 52.6296 84.656C52.2856 84.656 52.0176 84.676 51.8256 84.716C51.6416 84.756 51.5056 84.836 51.4176 84.956C51.3296 85.076 51.2856 85.256 51.2856 85.496V90.896C51.2856 91.136 51.3176 91.324 51.3816 91.46C51.4536 91.596 51.5816 91.7 51.7656 91.772C51.9576 91.836 52.2256 91.868 52.5696 91.868ZM60.1465 92C60.1305 92 60.1225 91.976 60.1225 91.928C60.1225 91.88 60.1305 91.856 60.1465 91.856C60.4505 91.856 60.6705 91.836 60.8065 91.796C60.9505 91.756 61.0465 91.68 61.0945 91.568C61.1505 91.448 61.1785 91.268 61.1785 91.028V85.472C61.1785 85.232 61.1505 85.056 61.0945 84.944C61.0465 84.832 60.9505 84.756 60.8065 84.716C60.6705 84.668 60.4505 84.644 60.1465 84.644C60.1305 84.644 60.1225 84.62 60.1225 84.572C60.1225 84.524 60.1305 84.5 60.1465 84.5H64.9705C65.0425 84.5 65.0785 84.536 65.0785 84.608L65.1025 86.084C65.1025 86.108 65.0785 86.124 65.0305 86.132C64.9905 86.132 64.9705 86.12 64.9705 86.096C64.9465 85.672 64.8185 85.344 64.5865 85.112C64.3545 84.872 64.0465 84.752 63.6625 84.752H62.9305C62.6505 84.752 62.4425 84.776 62.3065 84.824C62.1705 84.864 62.0745 84.936 62.0185 85.04C61.9705 85.144 61.9465 85.308 61.9465 85.532V90.98C61.9465 91.196 61.9705 91.36 62.0185 91.472C62.0745 91.576 62.1665 91.648 62.2945 91.688C62.4225 91.728 62.6225 91.748 62.8945 91.748H63.8545C64.2385 91.748 64.5585 91.612 64.8145 91.34C65.0705 91.068 65.2425 90.692 65.3305 90.212C65.3305 90.196 65.3465 90.188 65.3785 90.188C65.4025 90.188 65.4225 90.196 65.4385 90.212C65.4625 90.22 65.4745 90.228 65.4745 90.236C65.4025 90.74 65.3665 91.268 65.3665 91.82C65.3665 91.884 65.3505 91.932 65.3185 91.964C65.2945 91.988 65.2465 92 65.1745 92H60.1465ZM64.5025 89.204C64.5025 88.852 64.4145 88.6 64.2385 88.448C64.0705 88.296 63.7865 88.22 63.3865 88.22H61.5865V87.968H63.4225C63.8065 87.968 64.0785 87.904 64.2385 87.776C64.4065 87.648 64.4905 87.432 64.4905 87.128C64.4905 87.112 64.5145 87.104 64.5625 87.104C64.6105 87.104 64.6345 87.112 64.6345 87.128L64.6225 88.1C64.6225 88.332 64.6265 88.508 64.6345 88.628L64.6465 89.204C64.6465 89.22 64.6225 89.228 64.5745 89.228C64.5265 89.228 64.5025 89.22 64.5025 89.204ZM73.2878 84.368C73.7918 84.368 74.2158 84.404 74.5598 84.476C74.9038 84.548 75.2478 84.672 75.5918 84.848C75.6478 84.88 75.6798 84.908 75.6878 84.932C75.6958 84.956 75.7078 85.016 75.7238 85.112L75.8678 86.54C75.8678 86.564 75.8438 86.58 75.7958 86.588C75.7558 86.588 75.7318 86.576 75.7238 86.552C75.3558 85.216 74.5318 84.548 73.2518 84.548C72.5798 84.548 71.9838 84.696 71.4638 84.992C70.9518 85.288 70.5558 85.712 70.2758 86.264C69.9958 86.808 69.8558 87.444 69.8558 88.172C69.8558 88.868 70.0118 89.508 70.3238 90.092C70.6358 90.668 71.0518 91.124 71.5718 91.46C72.0998 91.796 72.6718 91.964 73.2878 91.964C73.9438 91.964 74.4758 91.804 74.8838 91.484C75.2918 91.164 75.6038 90.676 75.8198 90.02C75.8198 90.004 75.8398 89.996 75.8798 89.996C75.9358 89.996 75.9638 90.008 75.9638 90.032L75.8438 91.352C75.8358 91.448 75.8238 91.508 75.8078 91.532C75.7918 91.556 75.7598 91.584 75.7118 91.616C75.2958 91.816 74.9038 91.956 74.5358 92.036C74.1758 92.116 73.7598 92.156 73.2878 92.156C72.4478 92.156 71.6958 91.992 71.0318 91.664C70.3758 91.328 69.8638 90.86 69.4958 90.26C69.1278 89.66 68.9438 88.972 68.9438 88.196C68.9438 87.444 69.1318 86.78 69.5078 86.204C69.8838 85.62 70.3998 85.168 71.0558 84.848C71.7198 84.528 72.4638 84.368 73.2878 84.368ZM83.2543 92.144C82.5103 92.144 81.8463 91.972 81.2623 91.628C80.6863 91.276 80.2383 90.804 79.9183 90.212C79.6063 89.612 79.4503 88.96 79.4503 88.256C79.4503 87.432 79.6583 86.728 80.0743 86.144C80.4903 85.552 81.0223 85.108 81.6703 84.812C82.3263 84.516 82.9943 84.368 83.6743 84.368C84.4343 84.368 85.1023 84.548 85.6783 84.908C86.2543 85.26 86.6943 85.728 86.9983 86.312C87.3103 86.896 87.4663 87.516 87.4663 88.172C87.4663 88.9 87.2743 89.568 86.8903 90.176C86.5063 90.784 85.9903 91.264 85.3423 91.616C84.7023 91.968 84.0063 92.144 83.2543 92.144ZM83.6743 91.892C84.2183 91.892 84.7063 91.76 85.1383 91.496C85.5783 91.232 85.9223 90.848 86.1703 90.344C86.4263 89.832 86.5543 89.22 86.5543 88.508C86.5543 87.756 86.4143 87.088 86.1343 86.504C85.8543 85.92 85.4583 85.464 84.9463 85.136C84.4423 84.808 83.8503 84.644 83.1703 84.644C82.2903 84.644 81.6023 84.928 81.1063 85.496C80.6103 86.064 80.3623 86.844 80.3623 87.836C80.3623 88.588 80.5023 89.276 80.7823 89.9C81.0623 90.516 81.4543 91.004 81.9583 91.364C82.4623 91.716 83.0343 91.892 83.6743 91.892Z" fill="white"/>
<path d="M5.014 97.25C5.026 97.25 5.032 97.262 5.032 97.286C5.032 97.31 5.026 97.322 5.014 97.322C4.878 97.322 4.76 97.358 4.66 97.43C4.56 97.502 4.476 97.624 4.408 97.796L3.13 100.994C3.126 101.01 3.104 101.018 3.064 101.018C3.032 101.018 3.01 101.01 2.998 100.994L1.504 97.748C1.436 97.592 1.364 97.482 1.288 97.418C1.212 97.354 1.114 97.322 0.994 97.322C0.982 97.322 0.976 97.31 0.976 97.286C0.976 97.262 0.982 97.25 0.994 97.25L1.222 97.256C1.334 97.264 1.424 97.268 1.492 97.268C1.648 97.268 1.818 97.264 2.002 97.256L2.254 97.25C2.266 97.25 2.272 97.262 2.272 97.286C2.272 97.31 2.266 97.322 2.254 97.322C2.006 97.322 1.882 97.39 1.882 97.526C1.882 97.578 1.9 97.644 1.936 97.724L3.232 100.562L3.046 100.838L4.27 97.76C4.302 97.684 4.318 97.62 4.318 97.568C4.318 97.484 4.28 97.422 4.204 97.382C4.128 97.342 4.01 97.322 3.85 97.322C3.838 97.322 3.832 97.31 3.832 97.286C3.832 97.262 3.838 97.25 3.85 97.25L4.108 97.256C4.244 97.264 4.368 97.268 4.48 97.268C4.564 97.268 4.658 97.264 4.762 97.256L5.014 97.25ZM7.09436 101.078C6.86236 101.078 6.65636 101.022 6.47636 100.91C6.30036 100.794 6.16436 100.64 6.06836 100.448C5.97236 100.252 5.92436 100.04 5.92436 99.812C5.92436 99.552 5.98636 99.332 6.11036 99.152C6.23836 98.968 6.40036 98.832 6.59636 98.744C6.79636 98.652 6.99836 98.606 7.20236 98.606C7.43836 98.606 7.64436 98.664 7.82036 98.78C7.99636 98.896 8.13036 99.05 8.22236 99.242C8.31836 99.43 8.36636 99.63 8.36636 99.842C8.36636 100.09 8.30836 100.308 8.19236 100.496C8.07636 100.68 7.92036 100.824 7.72436 100.928C7.53236 101.028 7.32236 101.078 7.09436 101.078ZM7.26836 100.964C7.48836 100.964 7.65836 100.886 7.77836 100.73C7.89836 100.574 7.95836 100.334 7.95836 100.01C7.95836 99.762 7.91636 99.54 7.83236 99.344C7.75236 99.148 7.64036 98.996 7.49636 98.888C7.35236 98.776 7.18836 98.72 7.00436 98.72C6.78836 98.72 6.62036 98.798 6.50036 98.954C6.38436 99.11 6.32636 99.334 6.32636 99.626C6.32636 99.87 6.36636 100.094 6.44636 100.298C6.52636 100.502 6.63836 100.664 6.78236 100.784C6.92636 100.904 7.08836 100.964 7.26836 100.964ZM10.8475 101.072C10.6795 101.072 10.5415 101.034 10.4335 100.958C10.3255 100.882 10.2715 100.756 10.2715 100.58V99.17C10.2715 99.066 10.2635 98.992 10.2475 98.948C10.2355 98.904 10.2095 98.876 10.1695 98.864C10.1295 98.848 10.0615 98.84 9.96545 98.84C9.94945 98.84 9.94145 98.828 9.94145 98.804C9.94145 98.776 9.94945 98.762 9.96545 98.762C10.1255 98.758 10.2555 98.716 10.3555 98.636C10.4555 98.552 10.5135 98.442 10.5295 98.306C10.5295 98.294 10.5455 98.288 10.5775 98.288C10.6055 98.288 10.6195 98.294 10.6195 98.306V100.376C10.6195 100.7 10.7775 100.862 11.0935 100.862C11.2775 100.862 11.4375 100.806 11.5735 100.694L11.5855 100.688C11.6015 100.688 11.6135 100.698 11.6215 100.718C11.6295 100.734 11.6275 100.746 11.6155 100.754C11.4675 100.87 11.3335 100.952 11.2135 101C11.0975 101.048 10.9755 101.072 10.8475 101.072ZM11.4295 98.978C11.1735 98.914 10.8695 98.882 10.5175 98.882V98.75C10.7695 98.75 11.0815 98.73 11.4535 98.69C11.4615 98.69 11.4695 98.706 11.4775 98.738C11.4895 98.766 11.4955 98.798 11.4955 98.834C11.4955 98.866 11.4875 98.9 11.4715 98.936C11.4595 98.968 11.4455 98.982 11.4295 98.978ZM13.7208 99.308C13.9328 99.044 14.0968 98.866 14.2128 98.774C14.3288 98.678 14.4368 98.63 14.5368 98.63C14.6248 98.63 14.7088 98.654 14.7888 98.702C14.8688 98.75 14.9088 98.808 14.9088 98.876C14.9088 98.928 14.8908 98.972 14.8548 99.008C14.8188 99.044 14.7708 99.062 14.7108 99.062C14.6748 99.062 14.6428 99.056 14.6148 99.044C14.5908 99.028 14.5608 99.006 14.5248 98.978C14.4888 98.946 14.4548 98.922 14.4228 98.906C14.3908 98.89 14.3528 98.882 14.3088 98.882C14.2488 98.882 14.1828 98.912 14.1108 98.972C14.0388 99.032 13.9168 99.166 13.7448 99.374L13.7208 99.308ZM13.1568 101C13.1448 101 13.1388 100.988 13.1388 100.964C13.1388 100.94 13.1448 100.928 13.1568 100.928C13.2648 100.928 13.3448 100.918 13.3968 100.898C13.4488 100.874 13.4828 100.834 13.4988 100.778C13.5188 100.722 13.5288 100.634 13.5288 100.514V99.326C13.5288 99.19 13.5128 99.092 13.4808 99.032C13.4488 98.972 13.3948 98.942 13.3188 98.942C13.2548 98.942 13.1468 98.972 12.9948 99.032H12.9828C12.9668 99.032 12.9548 99.024 12.9468 99.008C12.9428 98.988 12.9488 98.974 12.9648 98.966L13.6608 98.636C13.6688 98.632 13.6808 98.63 13.6968 98.63C13.7328 98.63 13.7708 98.676 13.8108 98.768C13.8508 98.86 13.8708 98.978 13.8708 99.122V100.514C13.8708 100.634 13.8848 100.722 13.9128 100.778C13.9448 100.834 14.0008 100.874 14.0808 100.898C14.1608 100.918 14.2848 100.928 14.4528 100.928C14.4688 100.928 14.4768 100.94 14.4768 100.964C14.4768 100.988 14.4688 101 14.4528 101C14.3248 101 14.2228 100.998 14.1468 100.994L13.7028 100.988L13.3728 100.994C13.3208 100.998 13.2488 101 13.1568 101ZM17.456 101.072C17.224 101.072 17.026 101.018 16.862 100.91C16.698 100.802 16.572 100.66 16.484 100.484C16.4 100.308 16.358 100.12 16.358 99.92C16.358 99.684 16.414 99.468 16.526 99.272C16.638 99.072 16.79 98.916 16.982 98.804C17.178 98.688 17.392 98.63 17.624 98.63C17.848 98.63 18.02 98.69 18.14 98.81C18.26 98.93 18.32 99.098 18.32 99.314C18.32 99.37 18.314 99.41 18.302 99.434C18.294 99.458 18.276 99.47 18.248 99.47H17.912L17.918 99.362C17.918 99.162 17.874 99.01 17.786 98.906C17.698 98.802 17.578 98.75 17.426 98.75C17.214 98.75 17.048 98.834 16.928 99.002C16.812 99.17 16.754 99.4 16.754 99.692C16.754 100.04 16.836 100.322 17 100.538C17.164 100.754 17.394 100.862 17.69 100.862C17.81 100.862 17.912 100.846 17.996 100.814C18.084 100.782 18.182 100.732 18.29 100.664H18.296C18.308 100.664 18.318 100.672 18.326 100.688C18.338 100.7 18.34 100.712 18.332 100.724C18.06 100.956 17.768 101.072 17.456 101.072ZM16.64 99.398L18.002 99.374V99.47L16.646 99.476L16.64 99.398ZM22.4695 102.65C22.4575 102.65 22.4515 102.638 22.4515 102.614C22.4515 102.59 22.4575 102.578 22.4695 102.578C22.5775 102.578 22.6575 102.566 22.7095 102.542C22.7615 102.522 22.7975 102.484 22.8175 102.428C22.8375 102.372 22.8475 102.284 22.8475 102.164V99.344C22.8475 99.2 22.8315 99.098 22.7995 99.038C22.7675 98.974 22.7115 98.942 22.6315 98.942C22.5435 98.942 22.4375 98.97 22.3135 99.026L22.3015 99.032C22.2855 99.032 22.2755 99.022 22.2715 99.002C22.2635 98.982 22.2655 98.968 22.2775 98.96L22.9435 98.642C22.9515 98.638 22.9655 98.636 22.9855 98.636C23.0415 98.636 23.0875 98.684 23.1235 98.78C23.1635 98.872 23.1835 99.002 23.1835 99.17V102.164C23.1835 102.284 23.1975 102.372 23.2255 102.428C23.2575 102.484 23.3135 102.522 23.3935 102.542C23.4775 102.566 23.6075 102.578 23.7835 102.578C23.7915 102.578 23.7955 102.59 23.7955 102.614C23.7955 102.638 23.7915 102.65 23.7835 102.65C23.6475 102.65 23.5395 102.648 23.4595 102.644L23.0215 102.638L22.6915 102.644C22.6355 102.648 22.5615 102.65 22.4695 102.65ZM23.8195 101.078C23.6635 101.078 23.5275 101.058 23.4115 101.018C23.2955 100.982 23.1675 100.916 23.0275 100.82L23.1115 100.49C23.2355 100.642 23.3635 100.758 23.4955 100.838C23.6315 100.914 23.7995 100.952 23.9995 100.952C24.2115 100.952 24.3855 100.86 24.5215 100.676C24.6575 100.488 24.7255 100.228 24.7255 99.896C24.7255 99.56 24.6515 99.3 24.5035 99.116C24.3555 98.928 24.1675 98.834 23.9395 98.834C23.7795 98.834 23.6335 98.876 23.5015 98.96C23.3735 99.044 23.2335 99.168 23.0815 99.332L23.0335 99.284C23.2375 99.052 23.4335 98.882 23.6215 98.774C23.8095 98.662 23.9995 98.606 24.1915 98.606C24.3555 98.606 24.5075 98.65 24.6475 98.738C24.7875 98.826 24.8995 98.954 24.9835 99.122C25.0675 99.29 25.1095 99.486 25.1095 99.71C25.1095 100.01 25.0415 100.264 24.9055 100.472C24.7695 100.676 24.6015 100.828 24.4015 100.928C24.2055 101.028 24.0115 101.078 23.8195 101.078ZM28.366 101.036C28.35 101.044 28.334 101.048 28.318 101.048C28.258 101.048 28.206 101.002 28.162 100.91C28.118 100.818 28.096 100.696 28.096 100.544V99.41C28.096 98.962 27.97 98.738 27.718 98.738C27.582 98.738 27.478 98.784 27.406 98.876C27.338 98.964 27.292 99.066 27.268 99.182C27.252 99.258 27.228 99.318 27.196 99.362C27.168 99.406 27.116 99.428 27.04 99.428C26.976 99.428 26.926 99.41 26.89 99.374C26.858 99.338 26.842 99.296 26.842 99.248C26.842 99.152 26.904 99.056 27.028 98.96C27.152 98.864 27.3 98.784 27.472 98.72C27.644 98.656 27.798 98.624 27.934 98.624C28.098 98.624 28.222 98.676 28.306 98.78C28.39 98.884 28.432 99.034 28.432 99.23V100.352C28.432 100.492 28.45 100.594 28.486 100.658C28.522 100.722 28.58 100.754 28.66 100.754C28.74 100.754 28.84 100.728 28.96 100.676H28.972C28.988 100.676 28.998 100.686 29.002 100.706C29.006 100.722 29 100.734 28.984 100.742L28.366 101.036ZM27.286 101.042C27.138 101.042 27.022 101.004 26.938 100.928C26.858 100.848 26.818 100.748 26.818 100.628C26.818 100.508 26.866 100.404 26.962 100.316C27.058 100.228 27.216 100.144 27.436 100.064L28.156 99.794L28.174 99.872L27.538 100.118C27.426 100.162 27.344 100.214 27.292 100.274C27.244 100.33 27.22 100.398 27.22 100.478C27.22 100.574 27.25 100.656 27.31 100.724C27.374 100.788 27.456 100.82 27.556 100.82C27.636 100.82 27.732 100.788 27.844 100.724L28.222 100.496L28.234 100.574L27.79 100.862C27.69 100.926 27.602 100.972 27.526 101C27.45 101.028 27.37 101.042 27.286 101.042ZM30.9696 99.308C31.1816 99.044 31.3456 98.866 31.4616 98.774C31.5776 98.678 31.6856 98.63 31.7856 98.63C31.8736 98.63 31.9576 98.654 32.0376 98.702C32.1176 98.75 32.1576 98.808 32.1576 98.876C32.1576 98.928 32.1396 98.972 32.1036 99.008C32.0676 99.044 32.0196 99.062 31.9596 99.062C31.9236 99.062 31.8916 99.056 31.8636 99.044C31.8396 99.028 31.8096 99.006 31.7736 98.978C31.7376 98.946 31.7036 98.922 31.6716 98.906C31.6396 98.89 31.6016 98.882 31.5576 98.882C31.4976 98.882 31.4316 98.912 31.3596 98.972C31.2876 99.032 31.1656 99.166 30.9936 99.374L30.9696 99.308ZM30.4056 101C30.3936 101 30.3876 100.988 30.3876 100.964C30.3876 100.94 30.3936 100.928 30.4056 100.928C30.5136 100.928 30.5936 100.918 30.6456 100.898C30.6976 100.874 30.7316 100.834 30.7476 100.778C30.7676 100.722 30.7776 100.634 30.7776 100.514V99.326C30.7776 99.19 30.7616 99.092 30.7296 99.032C30.6976 98.972 30.6436 98.942 30.5676 98.942C30.5036 98.942 30.3956 98.972 30.2436 99.032H30.2316C30.2156 99.032 30.2036 99.024 30.1956 99.008C30.1916 98.988 30.1976 98.974 30.2136 98.966L30.9096 98.636C30.9176 98.632 30.9296 98.63 30.9456 98.63C30.9816 98.63 31.0196 98.676 31.0596 98.768C31.0996 98.86 31.1196 98.978 31.1196 99.122V100.514C31.1196 100.634 31.1336 100.722 31.1616 100.778C31.1936 100.834 31.2496 100.874 31.3296 100.898C31.4096 100.918 31.5336 100.928 31.7016 100.928C31.7176 100.928 31.7256 100.94 31.7256 100.964C31.7256 100.988 31.7176 101 31.7016 101C31.5736 101 31.4716 100.998 31.3956 100.994L30.9516 100.988L30.6216 100.994C30.5696 100.998 30.4976 101 30.4056 101ZM34.5892 101.072C34.4212 101.072 34.2832 101.034 34.1752 100.958C34.0672 100.882 34.0132 100.756 34.0132 100.58V99.17C34.0132 99.066 34.0052 98.992 33.9892 98.948C33.9772 98.904 33.9512 98.876 33.9112 98.864C33.8712 98.848 33.8032 98.84 33.7072 98.84C33.6912 98.84 33.6832 98.828 33.6832 98.804C33.6832 98.776 33.6912 98.762 33.7072 98.762C33.8672 98.758 33.9972 98.716 34.0972 98.636C34.1972 98.552 34.2552 98.442 34.2712 98.306C34.2712 98.294 34.2872 98.288 34.3192 98.288C34.3472 98.288 34.3612 98.294 34.3612 98.306V100.376C34.3612 100.7 34.5192 100.862 34.8352 100.862C35.0192 100.862 35.1792 100.806 35.3152 100.694L35.3272 100.688C35.3432 100.688 35.3552 100.698 35.3632 100.718C35.3712 100.734 35.3692 100.746 35.3572 100.754C35.2092 100.87 35.0752 100.952 34.9552 101C34.8392 101.048 34.7172 101.072 34.5892 101.072ZM35.1712 98.978C34.9152 98.914 34.6112 98.882 34.2592 98.882V98.75C34.5112 98.75 34.8232 98.73 35.1952 98.69C35.2032 98.69 35.2112 98.706 35.2192 98.738C35.2312 98.766 35.2372 98.798 35.2372 98.834C35.2372 98.866 35.2292 98.9 35.2132 98.936C35.2012 98.968 35.1872 98.982 35.1712 98.978ZM37.9425 101.072C37.7105 101.072 37.5125 101.018 37.3485 100.91C37.1845 100.802 37.0585 100.66 36.9705 100.484C36.8865 100.308 36.8445 100.12 36.8445 99.92C36.8445 99.684 36.9005 99.468 37.0125 99.272C37.1245 99.072 37.2765 98.916 37.4685 98.804C37.6645 98.688 37.8785 98.63 38.1105 98.63C38.3345 98.63 38.5065 98.69 38.6265 98.81C38.7465 98.93 38.8065 99.098 38.8065 99.314C38.8065 99.37 38.8005 99.41 38.7885 99.434C38.7805 99.458 38.7625 99.47 38.7345 99.47H38.3985L38.4045 99.362C38.4045 99.162 38.3605 99.01 38.2725 98.906C38.1845 98.802 38.0645 98.75 37.9125 98.75C37.7005 98.75 37.5345 98.834 37.4145 99.002C37.2985 99.17 37.2405 99.4 37.2405 99.692C37.2405 100.04 37.3225 100.322 37.4865 100.538C37.6505 100.754 37.8805 100.862 38.1765 100.862C38.2965 100.862 38.3985 100.846 38.4825 100.814C38.5705 100.782 38.6685 100.732 38.7765 100.664H38.7825C38.7945 100.664 38.8045 100.672 38.8125 100.688C38.8245 100.7 38.8265 100.712 38.8185 100.724C38.5465 100.956 38.2545 101.072 37.9425 101.072ZM37.1265 99.398L38.4885 99.374V99.47L37.1325 99.476L37.1265 99.398ZM42.1017 101C42.0897 101 42.0837 100.988 42.0837 100.964C42.0837 100.94 42.0897 100.928 42.1017 100.928C42.2097 100.928 42.2897 100.918 42.3417 100.898C42.3937 100.874 42.4277 100.834 42.4437 100.778C42.4637 100.722 42.4737 100.634 42.4737 100.514V99.542C42.4737 99.302 42.4277 99.128 42.3357 99.02C42.2477 98.908 42.1097 98.852 41.9217 98.852C41.7737 98.852 41.6237 98.898 41.4717 98.99C41.3237 99.082 41.1957 99.208 41.0877 99.368L41.0637 99.296C41.2397 99.06 41.4137 98.886 41.5857 98.774C41.7577 98.662 41.9357 98.606 42.1197 98.606C42.3397 98.606 42.5097 98.67 42.6297 98.798C42.7537 98.922 42.8157 99.102 42.8157 99.338V100.514C42.8157 100.634 42.8237 100.722 42.8397 100.778C42.8597 100.834 42.8957 100.874 42.9477 100.898C42.9997 100.918 43.0797 100.928 43.1877 100.928C43.1997 100.928 43.2057 100.94 43.2057 100.964C43.2057 100.988 43.1997 101 43.1877 101C43.0957 101 43.0237 100.998 42.9717 100.994L42.6477 100.988L42.3177 100.994C42.2657 100.998 42.1937 101 42.1017 101ZM40.4877 101C40.4757 101 40.4697 100.988 40.4697 100.964C40.4697 100.94 40.4757 100.928 40.4877 100.928C40.5957 100.928 40.6757 100.918 40.7277 100.898C40.7797 100.874 40.8137 100.834 40.8297 100.778C40.8497 100.722 40.8597 100.634 40.8597 100.514V99.326C40.8597 99.19 40.8437 99.092 40.8117 99.032C40.7797 98.972 40.7257 98.942 40.6497 98.942C40.5857 98.942 40.4777 98.972 40.3257 99.032H40.3137C40.2977 99.032 40.2857 99.024 40.2777 99.008C40.2737 98.988 40.2797 98.974 40.2957 98.966L40.9917 98.636C40.9997 98.632 41.0117 98.63 41.0277 98.63C41.0637 98.63 41.1017 98.676 41.1417 98.768C41.1817 98.86 41.2017 98.978 41.2017 99.122V100.514C41.2017 100.634 41.2097 100.722 41.2257 100.778C41.2457 100.834 41.2817 100.874 41.3337 100.898C41.3857 100.918 41.4657 100.928 41.5737 100.928C41.5857 100.928 41.5917 100.94 41.5917 100.964C41.5917 100.988 41.5857 101 41.5737 101C41.4817 101 41.4097 100.998 41.3577 100.994L41.0337 100.988L40.7037 100.994C40.6517 100.998 40.5797 101 40.4877 101ZM46.3413 101.036C46.3253 101.044 46.3093 101.048 46.2933 101.048C46.2333 101.048 46.1813 101.002 46.1373 100.91C46.0933 100.818 46.0713 100.696 46.0713 100.544V99.41C46.0713 98.962 45.9453 98.738 45.6933 98.738C45.5573 98.738 45.4533 98.784 45.3813 98.876C45.3133 98.964 45.2673 99.066 45.2433 99.182C45.2273 99.258 45.2033 99.318 45.1713 99.362C45.1433 99.406 45.0913 99.428 45.0153 99.428C44.9513 99.428 44.9013 99.41 44.8653 99.374C44.8333 99.338 44.8173 99.296 44.8173 99.248C44.8173 99.152 44.8793 99.056 45.0033 98.96C45.1273 98.864 45.2753 98.784 45.4473 98.72C45.6193 98.656 45.7733 98.624 45.9093 98.624C46.0733 98.624 46.1973 98.676 46.2813 98.78C46.3653 98.884 46.4073 99.034 46.4073 99.23V100.352C46.4073 100.492 46.4253 100.594 46.4613 100.658C46.4973 100.722 46.5553 100.754 46.6353 100.754C46.7153 100.754 46.8153 100.728 46.9353 100.676H46.9473C46.9633 100.676 46.9733 100.686 46.9773 100.706C46.9813 100.722 46.9753 100.734 46.9593 100.742L46.3413 101.036ZM45.2613 101.042C45.1133 101.042 44.9973 101.004 44.9133 100.928C44.8333 100.848 44.7933 100.748 44.7933 100.628C44.7933 100.508 44.8413 100.404 44.9373 100.316C45.0333 100.228 45.1913 100.144 45.4113 100.064L46.1313 99.794L46.1493 99.872L45.5133 100.118C45.4013 100.162 45.3193 100.214 45.2673 100.274C45.2193 100.33 45.1953 100.398 45.1953 100.478C45.1953 100.574 45.2253 100.656 45.2853 100.724C45.3493 100.788 45.4313 100.82 45.5313 100.82C45.6113 100.82 45.7073 100.788 45.8193 100.724L46.1973 100.496L46.2093 100.574L45.7653 100.862C45.6653 100.926 45.5773 100.972 45.5013 101C45.4253 101.028 45.3453 101.042 45.2613 101.042ZM48.429 101C48.421 101 48.417 100.988 48.417 100.964C48.417 100.94 48.421 100.928 48.429 100.928C48.537 100.928 48.617 100.918 48.669 100.898C48.725 100.874 48.763 100.834 48.783 100.778C48.803 100.722 48.813 100.634 48.813 100.514V99.392C48.813 99.248 48.797 99.144 48.765 99.08C48.737 99.016 48.687 98.984 48.615 98.984C48.543 98.984 48.453 99.012 48.345 99.068H48.339C48.323 99.068 48.311 99.058 48.303 99.038C48.295 99.018 48.297 99.004 48.309 98.996L49.089 98.636L49.113 98.63C49.121 98.63 49.131 98.636 49.143 98.648C49.155 98.656 49.161 98.666 49.161 98.678C49.161 98.706 49.159 98.786 49.155 98.918C49.151 99.05 49.149 99.206 49.149 99.386V100.514C49.149 100.634 49.159 100.722 49.179 100.778C49.199 100.834 49.235 100.874 49.287 100.898C49.339 100.918 49.419 100.928 49.527 100.928C49.539 100.928 49.545 100.94 49.545 100.964C49.545 100.988 49.539 101 49.527 101C49.435 101 49.361 100.998 49.305 100.994L48.981 100.988L48.657 100.994C48.601 100.998 48.525 101 48.429 101ZM48.933 97.928C48.853 97.928 48.789 97.906 48.741 97.862C48.693 97.818 48.669 97.756 48.669 97.676C48.669 97.596 48.693 97.534 48.741 97.49C48.789 97.446 48.853 97.424 48.933 97.424C49.013 97.424 49.075 97.446 49.119 97.49C49.163 97.534 49.185 97.596 49.185 97.676C49.185 97.756 49.163 97.818 49.119 97.862C49.075 97.906 49.013 97.928 48.933 97.928ZM51.7256 99.308C51.9376 99.044 52.1016 98.866 52.2176 98.774C52.3336 98.678 52.4416 98.63 52.5416 98.63C52.6296 98.63 52.7136 98.654 52.7936 98.702C52.8736 98.75 52.9136 98.808 52.9136 98.876C52.9136 98.928 52.8956 98.972 52.8596 99.008C52.8236 99.044 52.7756 99.062 52.7156 99.062C52.6796 99.062 52.6476 99.056 52.6196 99.044C52.5956 99.028 52.5656 99.006 52.5296 98.978C52.4936 98.946 52.4596 98.922 52.4276 98.906C52.3956 98.89 52.3576 98.882 52.3136 98.882C52.2536 98.882 52.1876 98.912 52.1156 98.972C52.0436 99.032 51.9216 99.166 51.7496 99.374L51.7256 99.308ZM51.1616 101C51.1496 101 51.1436 100.988 51.1436 100.964C51.1436 100.94 51.1496 100.928 51.1616 100.928C51.2696 100.928 51.3496 100.918 51.4016 100.898C51.4536 100.874 51.4876 100.834 51.5036 100.778C51.5236 100.722 51.5336 100.634 51.5336 100.514V99.326C51.5336 99.19 51.5176 99.092 51.4856 99.032C51.4536 98.972 51.3996 98.942 51.3236 98.942C51.2596 98.942 51.1516 98.972 50.9996 99.032H50.9876C50.9716 99.032 50.9596 99.024 50.9516 99.008C50.9476 98.988 50.9536 98.974 50.9696 98.966L51.6656 98.636C51.6736 98.632 51.6856 98.63 51.7016 98.63C51.7376 98.63 51.7756 98.676 51.8156 98.768C51.8556 98.86 51.8756 98.978 51.8756 99.122V100.514C51.8756 100.634 51.8896 100.722 51.9176 100.778C51.9496 100.834 52.0056 100.874 52.0856 100.898C52.1656 100.918 52.2896 100.928 52.4576 100.928C52.4736 100.928 52.4816 100.94 52.4816 100.964C52.4816 100.988 52.4736 101 52.4576 101C52.3296 101 52.2276 100.998 52.1516 100.994L51.7076 100.988L51.3776 100.994C51.3256 100.998 51.2536 101 51.1616 101ZM55.4609 101.072C55.2289 101.072 55.0309 101.018 54.8669 100.91C54.7029 100.802 54.5769 100.66 54.4889 100.484C54.4049 100.308 54.3629 100.12 54.3629 99.92C54.3629 99.684 54.4189 99.468 54.5309 99.272C54.6429 99.072 54.7949 98.916 54.9869 98.804C55.1829 98.688 55.3969 98.63 55.6289 98.63C55.8529 98.63 56.0249 98.69 56.1449 98.81C56.2649 98.93 56.3249 99.098 56.3249 99.314C56.3249 99.37 56.3189 99.41 56.3069 99.434C56.2989 99.458 56.2809 99.47 56.2529 99.47H55.9169L55.9229 99.362C55.9229 99.162 55.8789 99.01 55.7909 98.906C55.7029 98.802 55.5829 98.75 55.4309 98.75C55.2189 98.75 55.0529 98.834 54.9329 99.002C54.8169 99.17 54.7589 99.4 54.7589 99.692C54.7589 100.04 54.8409 100.322 55.0049 100.538C55.1689 100.754 55.3989 100.862 55.6949 100.862C55.8149 100.862 55.9169 100.846 56.0009 100.814C56.0889 100.782 56.1869 100.732 56.2949 100.664H56.3009C56.3129 100.664 56.3229 100.672 56.3309 100.688C56.3429 100.7 56.3449 100.712 56.3369 100.724C56.0649 100.956 55.7729 101.072 55.4609 101.072ZM54.6449 99.398L56.0069 99.374V99.47L54.6509 99.476L54.6449 99.398ZM61.4343 101.078C61.2663 101.078 61.1103 101.03 60.9663 100.934C60.8263 100.838 60.7123 100.704 60.6243 100.532C60.5403 100.356 60.4983 100.156 60.4983 99.932C60.4983 99.648 60.5683 99.406 60.7083 99.206C60.8483 99.006 61.0243 98.856 61.2363 98.756C61.4483 98.656 61.6583 98.606 61.8663 98.606C62.1423 98.606 62.3863 98.696 62.5983 98.876L62.5323 99.278C62.4243 99.102 62.3063 98.966 62.1783 98.87C62.0503 98.774 61.8923 98.726 61.7043 98.726C61.4523 98.726 61.2523 98.816 61.1043 98.996C60.9603 99.172 60.8883 99.424 60.8883 99.752C60.8883 99.972 60.9223 100.166 60.9903 100.334C61.0583 100.502 61.1503 100.632 61.2663 100.724C61.3863 100.816 61.5203 100.862 61.6683 100.862C61.8323 100.862 61.9823 100.818 62.1183 100.73C62.2543 100.642 62.3963 100.516 62.5443 100.352L62.5923 100.394C62.4083 100.602 62.2283 100.768 62.0523 100.892C61.8763 101.016 61.6703 101.078 61.4343 101.078ZM62.7783 100.34C62.7783 100.484 62.7943 100.588 62.8263 100.652C62.8623 100.716 62.9183 100.748 62.9943 100.748C63.1103 100.748 63.2143 100.72 63.3063 100.664L63.3183 100.658C63.3343 100.658 63.3443 100.668 63.3483 100.688C63.3563 100.708 63.3543 100.722 63.3423 100.73L62.6823 101.042C62.6663 101.05 62.6503 101.054 62.6343 101.054C62.5823 101.054 62.5363 101.006 62.4963 100.91C62.4603 100.814 62.4423 100.682 62.4423 100.514V97.418C62.4423 97.274 62.4263 97.17 62.3943 97.106C62.3663 97.042 62.3163 97.01 62.2443 97.01C62.1923 97.01 62.1003 97.038 61.9683 97.094H61.9563C61.9403 97.094 61.9283 97.086 61.9203 97.07C61.9163 97.05 61.9203 97.036 61.9323 97.028L62.6943 96.656C62.7023 96.652 62.7123 96.65 62.7243 96.65C62.7363 96.65 62.7483 96.656 62.7603 96.668C62.7723 96.676 62.7783 96.686 62.7783 96.698V100.34ZM64.7447 96.638C64.7407 96.622 64.7567 96.614 64.7927 96.614C64.8447 96.614 64.9087 96.626 64.9847 96.65C65.0647 96.67 65.1067 96.688 65.1107 96.704L65.4167 98.144C65.4247 98.152 65.4167 98.16 65.3927 98.168C65.3727 98.172 65.3607 98.168 65.3567 98.156L64.7447 96.638ZM68.224 101.072C67.992 101.072 67.794 101.018 67.63 100.91C67.466 100.802 67.34 100.66 67.252 100.484C67.168 100.308 67.126 100.12 67.126 99.92C67.126 99.684 67.182 99.468 67.294 99.272C67.406 99.072 67.558 98.916 67.75 98.804C67.946 98.688 68.16 98.63 68.392 98.63C68.616 98.63 68.788 98.69 68.908 98.81C69.028 98.93 69.088 99.098 69.088 99.314C69.088 99.37 69.082 99.41 69.07 99.434C69.062 99.458 69.044 99.47 69.016 99.47H68.68L68.686 99.362C68.686 99.162 68.642 99.01 68.554 98.906C68.466 98.802 68.346 98.75 68.194 98.75C67.982 98.75 67.816 98.834 67.696 99.002C67.58 99.17 67.522 99.4 67.522 99.692C67.522 100.04 67.604 100.322 67.768 100.538C67.932 100.754 68.162 100.862 68.458 100.862C68.578 100.862 68.68 100.846 68.764 100.814C68.852 100.782 68.95 100.732 69.058 100.664H69.064C69.076 100.664 69.086 100.672 69.094 100.688C69.106 100.7 69.108 100.712 69.1 100.724C68.828 100.956 68.536 101.072 68.224 101.072ZM67.408 99.398L68.77 99.374V99.47L67.414 99.476L67.408 99.398ZM72.0532 101C72.0412 101 72.0352 100.988 72.0352 100.964C72.0352 100.94 72.0412 100.928 72.0532 100.928C72.1252 100.928 72.1752 100.924 72.2032 100.916C72.2352 100.904 72.2512 100.884 72.2512 100.856C72.2512 100.82 72.2272 100.766 72.1792 100.694L71.1772 99.182C71.0812 99.034 70.9812 98.926 70.8772 98.858C70.7732 98.79 70.6792 98.756 70.5952 98.756C70.5872 98.756 70.5832 98.744 70.5832 98.72C70.5832 98.696 70.5872 98.684 70.5952 98.684C70.6792 98.684 70.7412 98.686 70.7812 98.69L70.9672 98.696L71.3512 98.69C71.4072 98.686 71.4852 98.684 71.5852 98.684C71.5932 98.684 71.5972 98.696 71.5972 98.72C71.5972 98.744 71.5932 98.756 71.5852 98.756C71.5172 98.756 71.4672 98.762 71.4352 98.774C71.4032 98.782 71.3872 98.8 71.3872 98.828C71.3872 98.856 71.4132 98.91 71.4652 98.99L72.4672 100.502C72.5672 100.654 72.6692 100.764 72.7732 100.832C72.8812 100.896 72.9772 100.928 73.0612 100.928C73.0692 100.928 73.0732 100.94 73.0732 100.964C73.0732 100.988 73.0692 101 73.0612 101L72.8692 100.994C72.8252 100.99 72.7612 100.988 72.6772 100.988L72.2932 100.994C72.2332 100.998 72.1532 101 72.0532 101ZM70.5772 101C70.5692 101 70.5652 100.988 70.5652 100.964C70.5652 100.94 70.5692 100.928 70.5772 100.928C70.6812 100.928 70.7932 100.89 70.9132 100.814C71.0372 100.738 71.1512 100.628 71.2552 100.484L71.7352 99.818L71.8072 99.878L71.3632 100.52C71.2832 100.64 71.2432 100.728 71.2432 100.784C71.2432 100.832 71.2692 100.868 71.3212 100.892C71.3772 100.916 71.4652 100.928 71.5852 100.928C71.5972 100.928 71.6032 100.94 71.6032 100.964C71.6032 100.988 71.5972 101 71.5852 101C71.4772 101 71.3972 100.998 71.3452 100.994L70.9852 100.988L70.7692 100.994C70.7292 100.998 70.6652 101 70.5772 101ZM71.7652 99.782L72.1852 99.164C72.2692 99.04 72.3112 98.95 72.3112 98.894C72.3112 98.846 72.2832 98.812 72.2272 98.792C72.1752 98.768 72.0872 98.756 71.9632 98.756C71.9552 98.756 71.9512 98.744 71.9512 98.72C71.9512 98.696 71.9552 98.684 71.9632 98.684C72.0712 98.684 72.1532 98.686 72.2092 98.69L72.5692 98.696L72.7852 98.69C72.8252 98.686 72.8892 98.684 72.9772 98.684C72.9852 98.684 72.9892 98.696 72.9892 98.72C72.9892 98.744 72.9852 98.756 72.9772 98.756C72.8692 98.756 72.7552 98.794 72.6352 98.87C72.5192 98.942 72.4072 99.052 72.2992 99.2L71.8252 99.842L71.7652 99.782ZM75.6619 101.072C75.4019 101.072 75.1839 101.016 75.0079 100.904C74.8319 100.788 74.7019 100.64 74.6179 100.46C74.5339 100.28 74.4919 100.09 74.4919 99.89C74.4919 99.634 74.5559 99.412 74.6839 99.224C74.8119 99.032 74.9759 98.886 75.1759 98.786C75.3799 98.682 75.5879 98.63 75.7999 98.63C75.9759 98.63 76.1359 98.666 76.2799 98.738C76.4279 98.806 76.5019 98.892 76.5019 98.996C76.5019 99.048 76.4819 99.094 76.4419 99.134C76.4059 99.17 76.3559 99.188 76.2919 99.188C76.1839 99.188 76.0959 99.122 76.0279 98.99C75.9759 98.91 75.9199 98.85 75.8599 98.81C75.7999 98.77 75.7139 98.75 75.6019 98.75C75.3779 98.75 75.2019 98.838 75.0739 99.014C74.9499 99.186 74.8879 99.418 74.8879 99.71C74.8879 100.046 74.9719 100.322 75.1399 100.538C75.3079 100.754 75.5599 100.862 75.8959 100.862C76.1399 100.862 76.3439 100.796 76.5079 100.664H76.5139C76.5259 100.664 76.5359 100.67 76.5439 100.682C76.5559 100.694 76.5579 100.704 76.5499 100.712C76.4099 100.836 76.2679 100.928 76.1239 100.988C75.9839 101.044 75.8299 101.072 75.6619 101.072ZM79.1616 101.072C78.9296 101.072 78.7316 101.018 78.5676 100.91C78.4036 100.802 78.2776 100.66 78.1896 100.484C78.1056 100.308 78.0636 100.12 78.0636 99.92C78.0636 99.684 78.1196 99.468 78.2316 99.272C78.3436 99.072 78.4956 98.916 78.6876 98.804C78.8836 98.688 79.0976 98.63 79.3296 98.63C79.5536 98.63 79.7256 98.69 79.8456 98.81C79.9656 98.93 80.0256 99.098 80.0256 99.314C80.0256 99.37 80.0196 99.41 80.0076 99.434C79.9996 99.458 79.9816 99.47 79.9536 99.47H79.6176L79.6236 99.362C79.6236 99.162 79.5796 99.01 79.4916 98.906C79.4036 98.802 79.2836 98.75 79.1316 98.75C78.9196 98.75 78.7536 98.834 78.6336 99.002C78.5176 99.17 78.4596 99.4 78.4596 99.692C78.4596 100.04 78.5416 100.322 78.7056 100.538C78.8696 100.754 79.0996 100.862 79.3956 100.862C79.5156 100.862 79.6176 100.846 79.7016 100.814C79.7896 100.782 79.8876 100.732 79.9956 100.664H80.0016C80.0136 100.664 80.0236 100.672 80.0316 100.688C80.0436 100.7 80.0456 100.712 80.0376 100.724C79.7656 100.956 79.4736 101.072 79.1616 101.072ZM78.3456 99.398L79.7076 99.374V99.47L78.3516 99.476L78.3456 99.398ZM81.6768 101C81.6648 101 81.6588 100.988 81.6588 100.964C81.6588 100.94 81.6648 100.928 81.6768 100.928C81.7848 100.928 81.8648 100.918 81.9168 100.898C81.9688 100.874 82.0048 100.834 82.0248 100.778C82.0448 100.718 82.0548 100.63 82.0548 100.514V97.412C82.0548 97.268 82.0408 97.164 82.0128 97.1C81.9848 97.036 81.9348 97.004 81.8628 97.004C81.8028 97.004 81.7108 97.032 81.5868 97.088H81.5748C81.5628 97.088 81.5528 97.078 81.5448 97.058C81.5408 97.038 81.5448 97.026 81.5568 97.022L82.3248 96.656C82.3328 96.652 82.3428 96.65 82.3548 96.65C82.3668 96.65 82.3788 96.656 82.3908 96.668C82.4028 96.676 82.4088 96.686 82.4088 96.698V100.514C82.4088 100.63 82.4168 100.716 82.4328 100.772C82.4528 100.828 82.4888 100.868 82.5408 100.892C82.5928 100.916 82.6728 100.928 82.7808 100.928C82.7928 100.928 82.7988 100.94 82.7988 100.964C82.7988 100.988 82.7928 101 82.7808 101C82.6928 101 82.6208 100.998 82.5648 100.994L82.2288 100.988L81.9048 100.994C81.8488 100.998 81.7728 101 81.6768 101ZM84.3637 101C84.3517 101 84.3457 100.988 84.3457 100.964C84.3457 100.94 84.3517 100.928 84.3637 100.928C84.4717 100.928 84.5517 100.918 84.6037 100.898C84.6557 100.874 84.6917 100.834 84.7117 100.778C84.7317 100.718 84.7417 100.63 84.7417 100.514V97.412C84.7417 97.268 84.7277 97.164 84.6997 97.1C84.6717 97.036 84.6217 97.004 84.5497 97.004C84.4897 97.004 84.3977 97.032 84.2737 97.088H84.2617C84.2497 97.088 84.2397 97.078 84.2317 97.058C84.2277 97.038 84.2317 97.026 84.2437 97.022L85.0117 96.656C85.0197 96.652 85.0297 96.65 85.0417 96.65C85.0537 96.65 85.0657 96.656 85.0777 96.668C85.0897 96.676 85.0957 96.686 85.0957 96.698V100.514C85.0957 100.63 85.1037 100.716 85.1197 100.772C85.1397 100.828 85.1757 100.868 85.2277 100.892C85.2797 100.916 85.3597 100.928 85.4677 100.928C85.4797 100.928 85.4857 100.94 85.4857 100.964C85.4857 100.988 85.4797 101 85.4677 101C85.3797 101 85.3077 100.998 85.2517 100.994L84.9157 100.988L84.5917 100.994C84.5357 100.998 84.4597 101 84.3637 101ZM88.1245 101.072C87.8925 101.072 87.6945 101.018 87.5305 100.91C87.3665 100.802 87.2405 100.66 87.1525 100.484C87.0685 100.308 87.0265 100.12 87.0265 99.92C87.0265 99.684 87.0825 99.468 87.1945 99.272C87.3065 99.072 87.4585 98.916 87.6505 98.804C87.8465 98.688 88.0605 98.63 88.2925 98.63C88.5165 98.63 88.6885 98.69 88.8085 98.81C88.9285 98.93 88.9885 99.098 88.9885 99.314C88.9885 99.37 88.9825 99.41 88.9705 99.434C88.9625 99.458 88.9445 99.47 88.9165 99.47H88.5805L88.5865 99.362C88.5865 99.162 88.5425 99.01 88.4545 98.906C88.3665 98.802 88.2465 98.75 88.0945 98.75C87.8825 98.75 87.7165 98.834 87.5965 99.002C87.4805 99.17 87.4225 99.4 87.4225 99.692C87.4225 100.04 87.5045 100.322 87.6685 100.538C87.8325 100.754 88.0625 100.862 88.3585 100.862C88.4785 100.862 88.5805 100.846 88.6645 100.814C88.7525 100.782 88.8505 100.732 88.9585 100.664H88.9645C88.9765 100.664 88.9865 100.672 88.9945 100.688C89.0065 100.7 89.0085 100.712 89.0005 100.724C88.7285 100.956 88.4365 101.072 88.1245 101.072ZM87.3085 99.398L88.6705 99.374V99.47L87.3145 99.476L87.3085 99.398ZM92.2838 101C92.2718 101 92.2658 100.988 92.2658 100.964C92.2658 100.94 92.2718 100.928 92.2838 100.928C92.3918 100.928 92.4718 100.918 92.5238 100.898C92.5758 100.874 92.6098 100.834 92.6258 100.778C92.6458 100.722 92.6558 100.634 92.6558 100.514V99.542C92.6558 99.302 92.6098 99.128 92.5178 99.02C92.4298 98.908 92.2918 98.852 92.1038 98.852C91.9558 98.852 91.8058 98.898 91.6538 98.99C91.5058 99.082 91.3778 99.208 91.2698 99.368L91.2458 99.296C91.4218 99.06 91.5958 98.886 91.7678 98.774C91.9398 98.662 92.1178 98.606 92.3018 98.606C92.5218 98.606 92.6918 98.67 92.8118 98.798C92.9358 98.922 92.9978 99.102 92.9978 99.338V100.514C92.9978 100.634 93.0058 100.722 93.0218 100.778C93.0418 100.834 93.0778 100.874 93.1298 100.898C93.1818 100.918 93.2618 100.928 93.3698 100.928C93.3818 100.928 93.3878 100.94 93.3878 100.964C93.3878 100.988 93.3818 101 93.3698 101C93.2778 101 93.2058 100.998 93.1538 100.994L92.8298 100.988L92.4998 100.994C92.4478 100.998 92.3758 101 92.2838 101ZM90.6698 101C90.6578 101 90.6518 100.988 90.6518 100.964C90.6518 100.94 90.6578 100.928 90.6698 100.928C90.7778 100.928 90.8578 100.918 90.9098 100.898C90.9618 100.874 90.9958 100.834 91.0118 100.778C91.0318 100.722 91.0418 100.634 91.0418 100.514V99.326C91.0418 99.19 91.0258 99.092 90.9938 99.032C90.9618 98.972 90.9078 98.942 90.8318 98.942C90.7678 98.942 90.6598 98.972 90.5078 99.032H90.4958C90.4798 99.032 90.4678 99.024 90.4598 99.008C90.4558 98.988 90.4618 98.974 90.4778 98.966L91.1738 98.636C91.1818 98.632 91.1938 98.63 91.2098 98.63C91.2458 98.63 91.2838 98.676 91.3238 98.768C91.3638 98.86 91.3838 98.978 91.3838 99.122V100.514C91.3838 100.634 91.3918 100.722 91.4078 100.778C91.4278 100.834 91.4638 100.874 91.5158 100.898C91.5678 100.918 91.6478 100.928 91.7558 100.928C91.7678 100.928 91.7738 100.94 91.7738 100.964C91.7738 100.988 91.7678 101 91.7558 101C91.6638 101 91.5918 100.998 91.5398 100.994L91.2158 100.988L90.8858 100.994C90.8338 100.998 90.7618 101 90.6698 101ZM96.0254 101.072C95.7654 101.072 95.5474 101.016 95.3714 100.904C95.1954 100.788 95.0654 100.64 94.9814 100.46C94.8974 100.28 94.8554 100.09 94.8554 99.89C94.8554 99.634 94.9194 99.412 95.0474 99.224C95.1754 99.032 95.3394 98.886 95.5394 98.786C95.7434 98.682 95.9514 98.63 96.1634 98.63C96.3394 98.63 96.4994 98.666 96.6434 98.738C96.7914 98.806 96.8654 98.892 96.8654 98.996C96.8654 99.048 96.8454 99.094 96.8054 99.134C96.7694 99.17 96.7194 99.188 96.6554 99.188C96.5474 99.188 96.4594 99.122 96.3914 98.99C96.3394 98.91 96.2834 98.85 96.2234 98.81C96.1634 98.77 96.0774 98.75 95.9654 98.75C95.7414 98.75 95.5654 98.838 95.4374 99.014C95.3134 99.186 95.2514 99.418 95.2514 99.71C95.2514 100.046 95.3354 100.322 95.5034 100.538C95.6714 100.754 95.9234 100.862 96.2594 100.862C96.5034 100.862 96.7074 100.796 96.8714 100.664H96.8774C96.8894 100.664 96.8994 100.67 96.9074 100.682C96.9194 100.694 96.9214 100.704 96.9134 100.712C96.7734 100.836 96.6314 100.928 96.4874 100.988C96.3474 101.044 96.1934 101.072 96.0254 101.072ZM99.525 101.072C99.293 101.072 99.095 101.018 98.931 100.91C98.767 100.802 98.641 100.66 98.553 100.484C98.469 100.308 98.427 100.12 98.427 99.92C98.427 99.684 98.483 99.468 98.595 99.272C98.707 99.072 98.859 98.916 99.051 98.804C99.247 98.688 99.461 98.63 99.693 98.63C99.917 98.63 100.089 98.69 100.209 98.81C100.329 98.93 100.389 99.098 100.389 99.314C100.389 99.37 100.383 99.41 100.371 99.434C100.363 99.458 100.345 99.47 100.317 99.47H99.981L99.987 99.362C99.987 99.162 99.943 99.01 99.855 98.906C99.767 98.802 99.647 98.75 99.495 98.75C99.283 98.75 99.117 98.834 98.997 99.002C98.881 99.17 98.823 99.4 98.823 99.692C98.823 100.04 98.905 100.322 99.069 100.538C99.233 100.754 99.463 100.862 99.759 100.862C99.879 100.862 99.981 100.846 100.065 100.814C100.153 100.782 100.251 100.732 100.359 100.664H100.365C100.377 100.664 100.387 100.672 100.395 100.688C100.407 100.7 100.409 100.712 100.401 100.724C100.129 100.956 99.837 101.072 99.525 101.072ZM98.709 99.398L100.071 99.374V99.47L98.715 99.476L98.709 99.398Z" fill="white"/>
</svg>
