<svg width="166" height="38" viewBox="0 0 166 38" fill="none" xmlns="http://www.w3.org/2000/svg">
<g filter="url(#filter0_i_619_4364)">
<path d="M11.4844 26.2139C8.77279 25.9632 7.4056 25.4163 7.38281 24.5732C7.26888 18.2614 7.22331 10.5653 7.24609 1.48486C7.15495 1.30257 6.95557 1.14876 6.64795 1.02344C5.06429 1.77539 3.41797 2.24251 1.70898 2.4248C1.64062 2.70964 1.64062 2.97738 1.70898 3.22803C2.99642 3.30778 3.97624 3.54134 4.64844 3.92871C4.73958 12.4964 4.72819 19.3779 4.61426 24.5732C4.59147 25.4163 3.62305 25.9632 1.70898 26.2139C1.59505 26.4987 1.59505 26.7778 1.70898 27.0513C4.35221 26.9601 7.61068 26.9601 11.4844 27.0513C11.5983 26.7778 11.5983 26.4987 11.4844 26.2139ZM12.0996 25.5815C12.2933 26.2879 12.2933 26.9772 12.0996 27.6494C7.71322 27.5583 4.0389 27.5583 1.07666 27.6494C0.894368 26.9772 0.894368 26.2879 1.07666 25.5815C2.94515 25.3993 3.89079 25.0518 3.91357 24.5391C4.05029 17.8512 4.06169 11.1235 3.94775 4.35596C3.18441 4.1167 2.22738 3.96289 1.07666 3.89453C0.826009 3.22233 0.826009 2.49886 1.07666 1.72412C2.80843 1.63298 4.74528 1.12028 6.88721 0.186035C8.12907 0.277181 9.05192 0.653158 9.65576 1.31396C9.61019 11.4653 9.65576 19.207 9.79248 24.5391C9.81527 25.0518 10.5843 25.3993 12.0996 25.5815ZM19.4824 2.98877C22.0573 2.98877 23.3447 3.92301 23.3447 5.7915C23.3447 7.65999 22.0573 8.59424 19.4824 8.59424C19.0951 8.59424 18.7305 8.52018 18.3887 8.37207C18.0583 8.22396 17.7677 8.02458 17.5171 7.77393C17.2664 7.51188 17.0671 7.20996 16.9189 6.86816C16.7708 6.52637 16.6968 6.16748 16.6968 5.7915C16.6968 5.41553 16.7708 5.05664 16.9189 4.71484C17.0671 4.37305 17.2664 4.07682 17.5171 3.82617C17.7677 3.56413 18.0583 3.35905 18.3887 3.21094C18.7305 3.06283 19.0951 2.98877 19.4824 2.98877ZM17.9102 4.32178C17.5684 4.72054 17.3975 5.21045 17.3975 5.7915C17.3975 6.08773 17.443 6.36686 17.5342 6.62891C17.6367 6.87956 17.7734 7.10173 17.9443 7.29541C18.1152 7.4777 18.3089 7.62581 18.5254 7.73975C18.7533 7.84229 18.9925 7.89355 19.2432 7.89355C19.4824 7.89355 19.716 7.84229 19.9438 7.73975C20.1717 7.62581 20.3711 7.4777 20.542 7.29541C20.7129 7.10173 20.8496 6.87956 20.9521 6.62891C21.0547 6.36686 21.106 6.08773 21.106 5.7915C21.106 5.49528 21.0547 5.22184 20.9521 4.97119C20.8496 4.70915 20.7129 4.48698 20.542 4.30469C20.3711 4.111 20.1717 3.96289 19.9438 3.86035C19.716 3.74642 19.4824 3.68945 19.2432 3.68945C19.0039 3.68945 18.7703 3.74072 18.5425 3.84326C18.3146 3.9458 18.1038 4.10531 17.9102 4.32178ZM24.8145 26.2139C22.1029 25.9632 20.7357 25.4163 20.7129 24.5732C20.599 21.1553 20.5534 16.9569 20.5762 11.978C20.485 11.7957 20.2856 11.6476 19.978 11.5337C18.3944 12.2743 16.748 12.7414 15.0391 12.9351C14.9707 13.2085 14.9707 13.4762 15.0391 13.7383C16.3265 13.8066 17.3063 14.0402 17.9785 14.439C18.0811 18.6886 18.0697 22.0667 17.9443 24.5732C17.9215 25.4163 16.9531 25.9632 15.0391 26.2139C14.9251 26.4987 14.9251 26.7778 15.0391 27.0513C18.3089 26.9829 21.5674 26.9829 24.8145 27.0513C24.9284 26.7778 24.9284 26.4987 24.8145 26.2139ZM25.4468 25.5815C25.6291 26.2879 25.6291 26.9772 25.4468 27.6494C21.7782 27.5355 18.1038 27.5355 14.4238 27.6494C14.2301 26.9772 14.2301 26.2879 14.4238 25.5815C16.2809 25.3993 17.2209 25.0518 17.2437 24.5391C17.3918 21.349 17.4032 18.119 17.2778 14.8491C16.5145 14.6213 15.5632 14.4731 14.4238 14.4048C14.1618 13.7212 14.1618 12.9977 14.4238 12.2344C16.1442 12.1432 18.0811 11.6305 20.2344 10.6963C21.4648 10.7874 22.382 11.1577 22.9858 11.8071C22.9403 17.4126 22.9858 21.6566 23.1226 24.5391C23.1567 25.0518 23.9315 25.3993 25.4468 25.5815ZM30.8301 27.2051C30.2832 27.3874 29.7477 27.6095 29.2236 27.8716C28.6882 27.5412 28.335 27.2051 28.1641 26.8633C28.1868 26.7949 28.221 26.5614 28.2666 26.1626C28.3122 25.7638 28.3577 25.2967 28.4033 24.7612C28.4603 24.2257 28.5059 23.6732 28.54 23.1035C28.5742 22.5339 28.5913 22.0496 28.5913 21.6509C29.1268 21.4002 29.9528 21.2749 31.0693 21.2749C31.1947 21.2749 31.32 21.2749 31.4453 21.2749C31.5706 21.2749 31.7017 21.2806 31.8384 21.292C32.6587 23.958 33.7809 25.4049 35.2051 25.6328C35.7861 25.5417 36.2305 25.3309 36.5381 25.0005C36.8571 24.6587 37.0166 24.277 37.0166 23.8555C37.0166 23.5479 36.9312 23.263 36.7603 23.001C36.5894 22.7275 36.3615 22.4769 36.0767 22.249C35.7918 22.0212 35.4557 21.8104 35.0684 21.6167C34.6924 21.423 34.2936 21.235 33.8721 21.0527C33.4505 20.859 33.0233 20.6768 32.5903 20.5059C32.1574 20.3236 31.7415 20.1356 31.3428 19.9419C30.9212 19.7482 30.5225 19.5146 30.1465 19.2412C29.7705 18.9564 29.4401 18.6374 29.1553 18.2842C28.8704 17.9196 28.6426 17.5208 28.4717 17.0879C28.3122 16.6549 28.2324 16.1878 28.2324 15.6865C28.2324 15.151 28.3236 14.5928 28.5059 14.0117C28.6882 13.4307 29.0015 12.9009 29.4458 12.4224C29.8901 11.9438 30.4883 11.5508 31.2402 11.2432C31.9922 10.9242 32.9378 10.7646 34.0771 10.7646C35.3418 10.7646 36.276 10.833 36.8799 10.9697L37.5122 10.7646H38.6743C38.8224 11.7331 38.999 12.6388 39.2041 13.4819C39.4206 14.325 39.6598 15.1112 39.9219 15.8403C39.432 16.3302 38.8395 16.5752 38.1445 16.5752C37.7572 16.1195 37.3983 15.7093 37.0679 15.3447C36.7375 14.9688 36.4185 14.644 36.1108 14.3706C35.8146 14.0972 35.5184 13.875 35.2222 13.7041C34.9373 13.5332 34.6411 13.4136 34.3335 13.3452C33.5815 13.4705 33.2056 13.8123 33.2056 14.3706C33.2056 14.8149 33.3993 15.2023 33.7866 15.5327C34.174 15.8631 34.6582 16.165 35.2393 16.4385C35.8203 16.7119 36.4526 16.974 37.1362 17.2246C37.8312 17.4639 38.4863 17.7202 39.1016 17.9937C39.5459 18.1873 39.9618 18.438 40.3491 18.7456C40.7479 19.0532 41.0954 19.4121 41.3916 19.8223C41.6878 20.221 41.9214 20.6711 42.0923 21.1724C42.2632 21.6623 42.3486 22.1921 42.3486 22.7617C42.3486 23.6048 42.1322 24.3625 41.6992 25.0347C41.2777 25.7069 40.7137 26.2765 40.0073 26.7437C39.3123 27.2108 38.5148 27.5697 37.6147 27.8203C36.7147 28.071 35.7975 28.1963 34.8633 28.1963C33.2568 28.1963 31.9124 27.8659 30.8301 27.2051ZM34.7437 27.4956C36.1678 27.4956 37.3869 27.0741 38.4009 26.231C39.4149 25.3879 39.9219 24.4422 39.9219 23.394C39.9219 22.3687 39.6086 21.4857 38.9819 20.7451C38.3553 19.9932 37.5977 19.4121 36.709 19.002C35.8203 18.5918 34.9259 18.2158 34.0259 17.874C33.1258 17.5208 32.3625 17.1107 31.7358 16.6436C31.1092 16.1764 30.7959 15.6296 30.7959 15.0029C30.7959 14.2054 31.0921 13.6016 31.6846 13.1914C32.277 12.7812 32.972 12.5762 33.7695 12.5762C34.6126 12.5762 35.3646 12.8382 36.0254 13.3623C36.6862 13.8864 37.4951 14.7238 38.4521 15.8745C38.7598 15.8745 38.9819 15.8005 39.1187 15.6523C38.6971 14.4447 38.0705 13.4478 37.2388 12.6616C36.4185 11.8641 35.3646 11.4653 34.0771 11.4653C32.2428 11.4653 30.9269 11.904 30.1294 12.7812C29.3319 13.6471 28.9331 14.6156 28.9331 15.6865C28.9331 16.598 29.235 17.3784 29.8389 18.0278C30.4541 18.6659 31.189 19.1615 32.0435 19.5146C32.9093 19.8564 33.7695 20.1982 34.624 20.54C35.4785 20.8818 36.2077 21.3262 36.8115 21.873C37.4154 22.4199 37.7173 23.0807 37.7173 23.8555C37.7173 24.5049 37.4382 25.0859 36.8799 25.5986C36.3216 26.1113 35.5412 26.3677 34.5386 26.3677C33.3309 26.3677 32.3966 25.986 31.7358 25.2227C31.0864 24.4479 30.5396 23.3713 30.0952 21.9927C29.6965 21.9927 29.4287 22.0269 29.292 22.0952C29.292 22.9155 29.2521 23.8555 29.1724 24.915C29.0926 25.9746 29.0129 26.6012 28.9331 26.7949C29.0129 26.9089 29.1211 27.0114 29.2578 27.1025C29.7249 26.7721 30.0838 26.4246 30.3345 26.0601C31.3371 26.6183 32.1175 26.9943 32.6758 27.188C33.2454 27.3931 33.9347 27.4956 34.7437 27.4956ZM63.0273 16.1138C63.0273 19.4064 63.09 22.2262 63.2153 24.5732C63.2381 25.1771 63.6198 25.5132 64.3604 25.5815C64.6452 26.2879 64.6452 26.9772 64.3604 27.6494C61.4437 27.5811 58.5156 27.5811 55.5762 27.6494C55.3027 26.9772 55.3027 26.2879 55.5762 25.5815C56.6927 25.422 57.251 25.0859 57.251 24.5732L57.2852 16.541C57.2852 15.2992 57.0402 14.5415 56.5503 14.2681C55.5477 14.5187 54.5337 15.134 53.5083 16.1138C53.5083 19.2469 53.5539 22.0553 53.645 24.5391C53.6792 24.8353 53.7646 25.0632 53.9014 25.2227C54.0381 25.3708 54.34 25.4904 54.8071 25.5815C55.092 26.2879 55.092 26.9772 54.8071 27.6494C51.5373 27.5583 48.2503 27.5583 44.9463 27.6494C44.6615 26.9772 44.6615 26.2879 44.9463 25.5815C46.8034 25.3309 47.7433 24.9834 47.7661 24.5391C47.8687 21.9756 47.8687 18.7456 47.7661 14.8491C47.0028 14.6213 46.0628 14.4731 44.9463 14.4048C44.6842 13.7212 44.6842 12.9977 44.9463 12.2344C46.6667 12.1432 48.6035 11.6305 50.7568 10.6963C51.9873 10.7874 52.9045 11.1577 53.5083 11.8071V12.3711C54.3058 11.8128 55.0692 11.4084 55.7983 11.1577C56.5389 10.8957 57.513 10.7646 58.7207 10.7646C60.5892 10.7646 61.8424 11.4425 62.4805 12.7983C63.597 11.978 64.5256 11.4368 65.2661 11.1748C66.0181 10.9014 67.0378 10.7646 68.3252 10.7646C69.8861 10.7646 70.9912 11.1919 71.6406 12.0464C72.3014 12.8895 72.6318 14.1997 72.6318 15.9771C72.6318 19.3608 72.6888 22.2262 72.8027 24.5732C72.8255 25.0404 73.6287 25.3765 75.2124 25.5815C75.4744 26.3335 75.4517 27.0228 75.144 27.6494C71.8058 27.5811 68.479 27.5811 65.1636 27.6494C64.8901 26.9772 64.8901 26.2879 65.1636 25.5815C65.5396 25.5815 65.9155 25.4847 66.2915 25.291C66.6675 25.0859 66.8555 24.8467 66.8555 24.5732L66.8896 16.541C66.8896 15.2992 66.6447 14.5415 66.1548 14.2681C65.2205 14.4959 64.1781 15.1112 63.0273 16.1138ZM60.5835 15.3789C60.5151 14.0231 60.2474 13.0319 59.7803 12.4053C59.3132 11.7786 58.5555 11.4653 57.5073 11.4653C56.7326 11.4653 55.9294 11.6875 55.0977 12.1318C54.2773 12.5762 53.6222 13.0148 53.1323 13.4478C52.6424 13.8693 51.9645 14.513 51.0986 15.3789V11.978C51.0075 11.7957 50.8081 11.6476 50.5005 11.5337C48.9168 12.2743 47.2705 12.7414 45.5615 12.9351C45.4932 13.2085 45.4932 13.4762 45.5615 13.7383C46.8717 13.8066 47.8402 14.0402 48.4668 14.439C48.5465 17.8455 48.5465 21.2236 48.4668 24.5732C48.444 25.4163 47.4642 25.9632 45.5273 26.2139C45.3906 26.4759 45.3906 26.755 45.5273 27.0513C48.444 26.9601 51.3493 26.9601 54.2432 27.0513C54.3913 26.755 54.3913 26.4759 54.2432 26.2139C52.2607 25.986 51.2581 25.4391 51.2354 24.5732C51.1442 22.2035 51.0986 19.5033 51.0986 16.4727C52.2835 15.4359 53.252 14.6725 54.0039 14.1826C54.7559 13.6927 55.4679 13.4478 56.1401 13.4478C57.3706 13.4478 57.9858 14.4788 57.9858 16.541L57.9517 24.5732C57.9517 25.4619 57.3478 26.0088 56.1401 26.2139C56.0034 26.4759 56.0034 26.755 56.1401 27.0513C58.7036 26.9829 61.2557 26.9829 63.7964 27.0513C63.9445 26.755 63.9445 26.4759 63.7964 26.2139C63.1925 26.1683 62.7026 26.1056 62.3267 26.0259C61.9621 25.9461 61.6146 25.7866 61.2842 25.5474C60.9538 25.2967 60.7886 24.972 60.7886 24.5732L60.6177 16.4727C61.8026 15.4359 62.771 14.6725 63.5229 14.1826C64.2749 13.6927 64.987 13.4478 65.6592 13.4478C66.8896 13.4478 67.5049 14.4788 67.5049 16.541L67.4707 24.5732C67.4707 25.4619 66.8669 26.0088 65.6592 26.2139C65.5225 26.4759 65.5225 26.755 65.6592 27.0513C68.5986 26.9829 71.5495 26.9829 74.5117 27.0513C74.6712 26.7778 74.6712 26.4987 74.5117 26.2139C71.7318 26.0771 70.3304 25.5303 70.3076 24.5732L70.1367 15.9771C70.0911 14.4162 69.8405 13.2769 69.3848 12.5591C68.929 11.8299 68.1429 11.4653 67.0264 11.4653C66.2516 11.4653 65.4484 11.6818 64.6167 12.1147C63.7964 12.5363 63.1299 12.9749 62.6172 13.4307C62.1045 13.8864 61.4266 14.5358 60.5835 15.3789ZM81.5186 14.5757C82.054 14.6668 82.4756 14.8776 82.7832 15.208C83.1022 15.527 83.2617 15.9372 83.2617 16.4385C83.2617 17.0423 83.0623 17.5436 82.6636 17.9424C82.2648 18.3298 81.7407 18.5234 81.0913 18.5234C80.4191 18.5234 79.8096 18.2842 79.2627 17.8057C78.7158 17.3271 78.4424 16.6493 78.4424 15.772C78.4424 14.2795 79.1488 13.0718 80.5615 12.1489C81.9857 11.2261 83.8428 10.7646 86.1328 10.7646C88.3089 10.7646 89.8356 11.2033 90.7129 12.0806C91.6016 12.9465 92.0459 14.4105 92.0459 16.4727V22.4541L93.1396 22.4199C94.0739 22.4883 94.7233 22.9326 95.0879 23.7529L94.541 24.6929C94.1878 25.2284 93.8916 25.6442 93.6523 25.9404C93.4245 26.2253 93.0941 26.55 92.6611 26.9146C92.2282 27.2791 91.7212 27.5412 91.1401 27.7007C90.5591 27.8602 89.8812 27.9399 89.1064 27.9399C88.1494 27.9399 87.4259 27.5811 86.936 26.8633C85.7056 27.752 84.0991 28.1963 82.1167 28.1963C81.2508 28.1963 80.5103 28.0596 79.895 27.7861C79.2912 27.5241 78.8468 27.1709 78.562 26.7266C78.2886 26.2822 78.0949 25.8664 77.981 25.479C77.867 25.0916 77.8101 24.6986 77.8101 24.2998C77.8101 22.625 78.374 21.3717 79.502 20.54C80.6299 19.7083 82.9085 18.8538 86.3379 17.9766V16.1138C86.3379 15.2023 86.1442 14.5358 85.7568 14.1143C85.3809 13.6927 84.891 13.4819 84.2871 13.4819C82.9997 13.4819 82.0768 13.8465 81.5186 14.5757ZM87.0386 19.583V23.1548C85.9448 24.6017 84.8283 25.3252 83.689 25.3252C83.0282 25.3252 82.487 25.1657 82.0654 24.8467C81.6553 24.5277 81.4502 24.0776 81.4502 23.4966C81.4502 22.5623 81.8319 21.7933 82.5952 21.1895C83.37 20.5856 84.8511 20.0501 87.0386 19.583ZM86.3379 22.9326V20.8477C84.6859 21.4515 83.8599 22.3345 83.8599 23.4966C83.8599 23.9865 84.0365 24.3283 84.3896 24.522C84.9935 24.3055 85.6429 23.7757 86.3379 22.9326ZM81.0913 17.0195C80.6925 17.0195 80.4134 16.729 80.2539 16.1479C80.026 15.2137 80.3052 14.3991 81.0913 13.7041C81.866 13.0205 83.0339 12.6787 84.5947 12.6787C85.3353 12.6787 85.9277 12.9692 86.3721 13.5503C86.8164 14.12 87.0386 14.9744 87.0386 16.1138V18.4893C83.6776 19.3551 81.416 20.1755 80.2539 20.9502C79.0918 21.7135 78.5107 22.8301 78.5107 24.2998C78.5107 25.0745 78.7728 25.8037 79.2969 26.4873C79.821 27.1595 80.7609 27.4956 82.1167 27.4956C82.6522 27.4956 83.1535 27.4102 83.6206 27.2393C84.0991 27.0684 84.589 26.7949 85.0903 26.4189C85.603 26.0316 85.9163 25.7866 86.0303 25.6841C86.1442 25.5815 86.3322 25.4049 86.5942 25.1543C86.8677 24.8923 87.0158 24.7498 87.0386 24.7271C87.1867 26.4019 87.876 27.2393 89.1064 27.2393C89.4141 27.2393 89.7673 27.1595 90.166 27C90.5648 26.8405 90.9635 26.5272 91.3623 26.0601C91.7725 25.5929 92.0288 25.2853 92.1313 25.1372C92.2453 24.9777 92.4105 24.7327 92.627 24.4023C92.8434 24.0605 93.0029 23.827 93.1055 23.7017C92.9574 23.3826 92.6725 23.2004 92.251 23.1548C91.6243 24.1118 90.9863 24.5789 90.3369 24.5562C89.8698 24.5334 89.6362 24.203 89.6362 23.5649V16.4727C89.6362 14.6497 89.2773 13.3623 88.5596 12.6104C87.8532 11.847 86.6341 11.4653 84.9023 11.4653C83.3415 11.4653 81.9857 11.8698 80.835 12.6787C79.6956 13.4762 79.126 14.5073 79.126 15.772C79.126 16.4214 79.3254 16.9284 79.7241 17.293C80.1229 17.6462 80.5786 17.8228 81.0913 17.8228C81.2508 17.5949 81.2508 17.3271 81.0913 17.0195ZM108.264 26.2139C108.127 26.4759 108.127 26.755 108.264 27.0513C111.226 26.9829 114.194 26.9829 117.168 27.0513C117.327 26.7778 117.327 26.4987 117.168 26.2139C114.388 26.0771 112.987 25.5303 112.964 24.5732L112.793 15.9771C112.736 14.4162 112.48 13.2769 112.024 12.5591C111.58 11.8299 110.793 11.4653 109.666 11.4653C107.774 11.4653 105.524 12.7699 102.915 15.3789V11.978C102.824 11.7957 102.625 11.6476 102.317 11.5337C100.733 12.2743 99.0869 12.7414 97.3779 12.9351C97.3096 13.2085 97.3096 13.4762 97.3779 13.7383C98.6882 13.8066 99.6566 14.0402 100.283 14.439C100.409 17.8455 100.409 21.2236 100.283 24.5732C100.26 25.4163 99.2806 25.9632 97.3438 26.2139C97.207 26.4759 97.207 26.755 97.3438 27.0513C100.306 26.9373 103.285 26.9373 106.282 27.0513C106.418 26.755 106.418 26.4759 106.282 26.2139C104.151 25.986 103.075 25.4391 103.052 24.5732C102.961 22.2035 102.915 19.5033 102.915 16.4727C105.205 14.4561 107 13.4478 108.298 13.4478C109.54 13.4478 110.161 14.4788 110.161 16.541L110.127 24.5732C110.127 25.1315 109.956 25.5246 109.614 25.7524C109.272 25.9689 108.822 26.1227 108.264 26.2139ZM107.717 27.6494C107.432 26.9772 107.432 26.2879 107.717 25.5815C108.082 25.5815 108.458 25.4847 108.845 25.291C109.233 25.0859 109.426 24.8467 109.426 24.5732L109.46 16.541C109.46 15.2992 109.215 14.5415 108.726 14.2681C107.882 14.4731 106.749 15.0884 105.325 16.1138C105.325 19.2469 105.37 22.0553 105.461 24.5391C105.518 25.1429 105.974 25.4904 106.829 25.5815C107.113 26.2879 107.113 26.9772 106.829 27.6494C103.49 27.5355 100.135 27.5355 96.7627 27.6494C96.4779 26.9772 96.4779 26.2879 96.7627 25.5815C98.6198 25.3309 99.5597 24.9834 99.5825 24.5391C99.7078 21.3262 99.7078 18.0962 99.5825 14.8491C98.8192 14.6213 97.8792 14.4731 96.7627 14.4048C96.5007 13.7212 96.5007 12.9977 96.7627 12.2344C98.4831 12.1432 100.42 11.6305 102.573 10.6963C103.804 10.7874 104.721 11.1577 105.325 11.8071V12.3711C106.943 11.3001 108.8 10.7646 110.896 10.7646C112.434 10.7646 113.528 11.1862 114.177 12.0293C114.838 12.861 115.18 14.1769 115.203 15.9771C115.248 20.5002 115.305 23.3656 115.374 24.5732C115.396 25.0404 116.2 25.3765 117.783 25.5815C118.045 26.3335 118.022 27.0228 117.715 27.6494C114.377 27.5811 111.044 27.5811 107.717 27.6494ZM124.824 2.98877C127.399 2.98877 128.687 3.92301 128.687 5.7915C128.687 7.65999 127.399 8.59424 124.824 8.59424C124.437 8.59424 124.072 8.52018 123.73 8.37207C123.4 8.22396 123.11 8.02458 122.859 7.77393C122.608 7.51188 122.409 7.20996 122.261 6.86816C122.113 6.52637 122.039 6.16748 122.039 5.7915C122.039 5.41553 122.113 5.05664 122.261 4.71484C122.409 4.37305 122.608 4.07682 122.859 3.82617C123.11 3.56413 123.4 3.35905 123.73 3.21094C124.072 3.06283 124.437 2.98877 124.824 2.98877ZM123.252 4.32178C122.91 4.72054 122.739 5.21045 122.739 5.7915C122.739 6.08773 122.785 6.36686 122.876 6.62891C122.979 6.87956 123.115 7.10173 123.286 7.29541C123.457 7.4777 123.651 7.62581 123.867 7.73975C124.095 7.84229 124.334 7.89355 124.585 7.89355C124.824 7.89355 125.058 7.84229 125.286 7.73975C125.514 7.62581 125.713 7.4777 125.884 7.29541C126.055 7.10173 126.191 6.87956 126.294 6.62891C126.396 6.36686 126.448 6.08773 126.448 5.7915C126.448 5.49528 126.396 5.22184 126.294 4.97119C126.191 4.70915 126.055 4.48698 125.884 4.30469C125.713 4.111 125.514 3.96289 125.286 3.86035C125.058 3.74642 124.824 3.68945 124.585 3.68945C124.346 3.68945 124.112 3.74072 123.884 3.84326C123.656 3.9458 123.446 4.10531 123.252 4.32178ZM130.156 26.2139C127.445 25.9632 126.077 25.4163 126.055 24.5732C125.941 21.1553 125.895 16.9569 125.918 11.978C125.827 11.7957 125.627 11.6476 125.32 11.5337C123.736 12.2743 122.09 12.7414 120.381 12.9351C120.312 13.2085 120.312 13.4762 120.381 13.7383C121.668 13.8066 122.648 14.0402 123.32 14.439C123.423 18.6886 123.411 22.0667 123.286 24.5732C123.263 25.4163 122.295 25.9632 120.381 26.2139C120.267 26.4987 120.267 26.7778 120.381 27.0513C123.651 26.9829 126.909 26.9829 130.156 27.0513C130.27 26.7778 130.27 26.4987 130.156 26.2139ZM130.789 25.5815C130.971 26.2879 130.971 26.9772 130.789 27.6494C127.12 27.5355 123.446 27.5355 119.766 27.6494C119.572 26.9772 119.572 26.2879 119.766 25.5815C121.623 25.3993 122.563 25.0518 122.585 24.5391C122.734 21.349 122.745 18.119 122.62 14.8491C121.856 14.6213 120.905 14.4731 119.766 14.4048C119.504 13.7212 119.504 12.9977 119.766 12.2344C121.486 12.1432 123.423 11.6305 125.576 10.6963C126.807 10.7874 127.724 11.1577 128.328 11.8071C128.282 17.4126 128.328 21.6566 128.464 24.5391C128.499 25.0518 129.273 25.3993 130.789 25.5815ZM138.838 13.5332H145.554C145.714 13.0889 145.714 12.6787 145.554 12.3027H138.838V8.56006C138.553 8.43473 138.268 8.43473 137.983 8.56006C137.562 9.34619 137.095 10.0355 136.582 10.6279C136.069 11.209 135.636 11.6191 135.283 11.8584C134.941 12.0863 134.446 12.3825 133.796 12.7471C133.717 12.9863 133.717 13.2484 133.796 13.5332H135.881V22.4883C135.881 25.8265 137.26 27.4956 140.017 27.4956C141.191 27.4956 142.273 27.1937 143.264 26.5898C144.255 25.9746 144.996 25.2227 145.486 24.334C145.383 24.0833 145.195 23.9466 144.922 23.9238C143.851 24.8809 142.814 25.3594 141.812 25.3594C139.829 25.3594 138.838 24.4593 138.838 22.6592V13.5332ZM144.717 23.189C145.435 23.2801 145.947 23.6732 146.255 24.3682C145.662 25.4505 144.802 26.3563 143.674 27.0854C142.546 27.826 141.327 28.1963 140.017 28.1963C136.804 28.1963 135.198 26.2936 135.198 22.4883V14.2168H133.096C132.925 13.613 132.925 12.9863 133.096 12.3369C133.791 11.9382 134.32 11.6134 134.685 11.3628C135.05 11.1007 135.505 10.6792 136.052 10.0981C136.599 9.51709 137.083 8.81641 137.505 7.99609C138.576 7.55176 139.823 7.57454 141.248 8.06445V11.6021H146.221C146.585 12.4451 146.585 13.3167 146.221 14.2168H141.248V22.6592C141.248 23.7529 141.641 24.3966 142.427 24.5903C143.11 24.4422 143.874 23.9751 144.717 23.189ZM164.883 11.209C165.111 11.9382 165.088 12.6274 164.814 13.2769C163.39 13.3452 162.502 13.7782 162.148 14.5757L156.902 27.2051L155.039 32.144C154.299 34.1265 153.541 35.4823 152.766 36.2114C152.003 36.952 151.046 37.3223 149.895 37.3223C148.938 37.3223 148.169 37.0317 147.588 36.4507C147.007 35.8696 146.716 35.1462 146.716 34.2803C146.716 33.4372 147.007 32.7251 147.588 32.144C148.169 31.563 148.881 31.2725 149.724 31.2725C150.727 31.2725 151.53 31.6541 152.134 32.4175L154.202 26.9658L149.023 14.5757C148.773 13.9035 147.839 13.4705 146.221 13.2769C145.924 12.6274 145.902 11.9382 146.152 11.209C150.003 11.3571 153.518 11.3571 156.697 11.209C156.925 11.9382 156.902 12.6274 156.628 13.2769C155.945 13.3224 155.478 13.4307 155.227 13.6016C154.988 13.7611 154.954 14.0402 155.125 14.439L157.209 19.5488L159.141 14.439C159.277 14.0858 159.237 13.8123 159.021 13.6187C158.816 13.4136 158.343 13.2996 157.603 13.2769C157.318 12.6274 157.295 11.9382 157.534 11.209C158.468 11.2546 160.918 11.2546 164.883 11.209ZM164.353 11.8413C161.835 11.9552 159.739 11.9552 158.064 11.8413C157.939 12.1489 157.939 12.4167 158.064 12.6445C158.497 12.6673 158.861 12.7186 159.158 12.7983C159.454 12.8667 159.699 13.0319 159.893 13.2939C160.086 13.5446 160.103 13.8807 159.944 14.3022L156.372 23.7017L152.766 14.7124C152.515 14.063 152.772 13.5674 153.535 13.2256C154.31 12.8838 155.187 12.6901 156.167 12.6445C156.281 12.4167 156.281 12.1489 156.167 11.8413C152.76 11.9894 149.599 11.9894 146.682 11.8413C146.568 12.1489 146.568 12.4167 146.682 12.6445C148.266 12.8382 149.257 13.3908 149.656 14.3022L154.971 27L153.091 31.8706C152.715 32.9188 152.265 33.7391 151.741 34.3315C151.217 34.924 150.675 35.2202 150.117 35.2202C149.183 35.2202 148.716 34.7531 148.716 33.8188C148.716 33.215 148.938 32.8675 149.382 32.7764C149.542 32.5143 149.542 32.2466 149.382 31.9731C148.813 31.9731 148.34 32.1611 147.964 32.5371C147.599 32.9245 147.417 33.46 147.417 34.1436C147.417 34.8841 147.668 35.4823 148.169 35.938C148.67 36.3937 149.308 36.6216 150.083 36.6216C151.017 36.6216 151.792 36.2969 152.407 35.6475C153.022 34.998 153.683 33.7505 154.39 31.9048L156.235 26.9316L161.516 14.3022C161.96 13.2655 162.906 12.7129 164.353 12.6445C164.467 12.4167 164.467 12.1489 164.353 11.8413Z" fill="url(#paint0_linear_619_4364)"/>
</g>
<defs>
<filter id="filter0_i_619_4364" x="0.703125" y="0.185547" width="164.523" height="41.1367" filterUnits="userSpaceOnUse" color-interpolation-filters="sRGB">
<feFlood flood-opacity="0" result="BackgroundImageFix"/>
<feBlend mode="normal" in="SourceGraphic" in2="BackgroundImageFix" result="shape"/>
<feColorMatrix in="SourceAlpha" type="matrix" values="0 0 0 0 0 0 0 0 0 0 0 0 0 0 0 0 0 0 127 0" result="hardAlpha"/>
<feOffset dy="4"/>
<feGaussianBlur stdDeviation="2"/>
<feComposite in2="hardAlpha" operator="arithmetic" k2="-1" k3="1"/>
<feColorMatrix type="matrix" values="0 0 0 0 0 0 0 0 0 0 0 0 0 0 0 0 0 0 0.25 0"/>
<feBlend mode="normal" in2="shape" result="effect1_innerShadow_619_4364"/>
</filter>
<linearGradient id="paint0_linear_619_4364" x1="77.4342" y1="17.5937" x2="110.645" y2="32.8592" gradientUnits="userSpaceOnUse">
<stop/>
<stop offset="1" stop-color="#457A6F"/>
</linearGradient>
</defs>
</svg>
